<svg xmlns="http://www.w3.org/2000/svg" xmlns:xlink="http://www.w3.org/1999/xlink" width="24" height="24" viewBox="0 0 24 24">
    <defs>
        <path id="a" d="M18 12c3.309 0 6 2.691 6 6s-2.691 6-6 6a5.958 5.958 0 0 1-4.243-1.757L12 24v-5h5l-1.828 1.828.016.018A3.96 3.96 0 0 0 18 22c2.206 0 4-1.794 4-4s-1.794-4-4-4-4 1.794-4 4h-2c0-3.309 2.691-6 6-6zM7 0v3h7v2h1V0h2v3h1c1.103 0 2 .898 2 2v5h-2.002l.001-2H2v10h8v2H2c-1.103 0-2-.897-2-2V5c0-1.102.897-2 2-2h2v2h1V0h2z"/>
    </defs>
    <g fill="none" fill-rule="evenodd">
        <path fill="#EFF1F1" d="M-607-735H833v970H-607z"/>
        <path fill="#FFF" d="M-67-710h780v910H-67z"/>
        <g>
            <mask id="b" fill="#fff">
                <use xlink:href="#a"/>
            </mask>
            <use fill="#005EB8" xlink:href="#a"/>
            <path fill="#63666A" d="M0 0h24v24H0z" mask="url(#b)"/>
        </g>
    </g>
</svg>
