<svg xmlns="http://www.w3.org/2000/svg" width="24" height="24" viewBox="0 0 24 24">
    <g fill="none" fill-rule="evenodd">
        <g fill="#FFF">
            <g>
                <g>
                    <g>
                        <g>
                            <g>
                                <path d="M18 11c-.552 0-1 .448-1 1v8H7v-8c0-.552-.448-1-1-1h-.586L12 4.414 18.586 11H18zm3.707.293l-9-9c-.39-.39-1.023-.39-1.414 0l-9 9c-.286.286-.372.716-.217 1.09.155.374.52.617.924.617h2v8c0 .552.448 1 1 1h12c.552 0 1-.448 1-1v-8h2c.404 0 .77-.243.924-.617.155-.374.07-.804-.217-1.09z" transform="translate(-1625 -1516) translate(333 409) translate(0 31) translate(0 989) translate(1250 71) translate(42 16)"/>
                            </g>
                        </g>
                    </g>
                </g>
            </g>
        </g>
    </g>
</svg>
