<svg xmlns="http://www.w3.org/2000/svg" xmlns:xlink="http://www.w3.org/1999/xlink" width="22" height="21" viewBox="0 0 22 21">
    <defs>
        <path id="a" d="M18.771 5.559l.042.08c2.239 3.929 1.775 8.92-1.45 12.146a9.594 9.594 0 0 1-2.122 1.603 9.56 9.56 0 0 1-2.895 1.192c-.094.022-.183-.015-.262-.092-3.187.527-6.639-.482-9.16-3.004-4.064-4.063-4.2-10.54-.302-14.439.066-.065.154-.082.256-.064A9.63 9.63 0 0 1 7.658.268C12.132-.765 16.643 1.526 18.77 5.56zM8.126 2.299c-4.297.992-6.951 5.444-5.917 9.924.088.379.2.754.335 1.114l-.045.018a8.598 8.598 0 0 0 1.838 2.716c2.737 2.736 6.841 3.246 9.931 1.48 2.83-1.799 4.351-5.354 3.526-8.926a8.657 8.657 0 0 0-.735-2.013 8.798 8.798 0 0 0-2.286-2.619l.075-.1C12.998 2.403 10.555 1.74 8.126 2.3zm4.17 3.928v6.258H7.264v-2.086h3.032l.001-4.172h1.999z"/>
    </defs>
    <g fill="none" fill-rule="evenodd">
        <path d="M-1-2h24v25H-1z"/>
        <g transform="translate(1 .083)">
            <mask id="b" fill="#fff">
                <use xlink:href="#a"/>
            </mask>
            <use fill="#000" xlink:href="#a"/>
            <path fill="#63666A" d="M-2-2.083h24v25H-2z" mask="url(#b)"/>
        </g>
    </g>
</svg>
