<svg xmlns="http://www.w3.org/2000/svg" xmlns:xlink="http://www.w3.org/1999/xlink" width="24" height="24" viewBox="0 0 24 24">
    <defs>
        <path id="a" d="M3.293 16H11c4.411 0 8-3.14 8-7s-3.589-7-8-7C6.59 2 3 5.14 3 9c0 1.537.568 3 1.642 4.232a1 1 0 0 1-.02 1.338L3.292 16zM11 18H1a1 1 0 0 1-.733-1.68l2.306-2.484C1.541 12.392 1 10.735 1 9c0-4.962 4.486-9 10-9s10 4.038 10 9-4.486 9-10 9z"/>
    </defs>
    <g fill="none" fill-rule="evenodd">
        <path fill="#FFF" d="M-97-683H927v940H-97z"/>
        <path fill="#EFF1F1" d="M-97-595H927v852H-97z"/>
        <path fill="#FFF" d="M-35-509h900v741H-35z"/>
        <path d="M0 0h24v24H0z"/>
        <g transform="translate(1 3)">
            <mask id="b" fill="#fff">
                <use xlink:href="#a"/>
            </mask>
            <use fill="#005EB8" xlink:href="#a"/>
            <path fill="#63666A" d="M-1-3h24v24H-1z" mask="url(#b)"/>
        </g>
    </g>
</svg>
