<svg xmlns="http://www.w3.org/2000/svg" width="24" height="24" viewBox="0 0 24 24">
    <g fill="none" fill-rule="evenodd">
        <path d="M0 0L24 0 24 24 0 24z"/>
        <path fill="#63666A" d="M10.2 15.6c-1.442 0-2.798-.562-3.818-1.581C5.362 12.999 4.8 11.643 4.8 10.2c0-1.442.562-2.798 1.582-3.818S8.758 4.8 10.2 4.8c1.442 0 2.798.562 3.818 1.582S15.6 8.758 15.6 10.2c0 1.443-.562 2.799-1.582 3.819S11.642 15.6 10.2 15.6zm10.536 3.864l-4.853-4.854c.98-1.256 1.517-2.79 1.517-4.41 0-1.923-.75-3.731-2.11-5.09C13.931 3.749 12.123 3 10.2 3s-3.731.749-5.09 2.11C3.75 6.469 3 8.277 3 10.2s.75 3.731 2.11 5.09c1.359 1.361 3.167 2.11 5.09 2.11 1.62 0 3.154-.536 4.41-1.517l4.854 4.853 1.272-1.272z"/>
    </g>
</svg>
