<svg xmlns="http://www.w3.org/2000/svg" xmlns:xlink="http://www.w3.org/1999/xlink" width="204" height="157" viewBox="0 0 204 157">
    <defs>
        <path id="03ympo753a" d="M0 157L204 157 204 0 0 0z"/>
    </defs>
    <g fill="none" fill-rule="evenodd">
        <g>
            <g>
                <g transform="translate(-719 -141) translate(0 -1) translate(719 142)">
                    <path fill="#E1C2EF" d="M168.92 83l.08-16.592c0-4.091-3.134-7.408-7-7.408s-7 3.317-7 7.408v12.934M99.824 156c14.768-52.5-14.379-81.667-14.379-81.278C67.957 87.556 46.583 58 46.583 58 19.767 68.5 5 96.5 5 96.89c13.796 14.97 27.592 20.22 27.592 20.22s-9.716 24.113-9.91 38.89h77.142z"/>
                    <path fill="#F1E4F5" d="M104 35.248c-2.301-8.478-8.001-14.85-15.454-16.048-5.616-.903-11.15 1.303-15.546 5.591C76.588 31.34 85.81 36 96.623 36c2.567 0 5.043-.265 7.377-.752"/>
                    <path fill="#A25CBF" d="M63.834 42.806c.188 0 .371.063.523.182.226.178.345.461.317.748-1.251 12.259 5.172 21.627 15.983 23.312 11.66 1.816 21.232-5.989 23.26-18.985 1.054-6.754-.01-13.417-2.996-18.76-2.948-5.276-7.42-8.625-12.593-9.43-8.442-1.318-16.976 4.472-21.233 14.407-.113.264-.352.453-.637.5-.282.044-.571-.053-.764-.267-.982-1.087-2.38-1.71-3.834-1.71-2.852 0-5.173 2.32-5.173 5.172 0 2.85 2.32 5.17 5.173 5.17.57 0 1.142-.098 1.697-.291.09-.032.184-.048.277-.048M84.021 69c-1.184 0-2.392-.094-3.624-.285-11.402-1.778-18.324-11.338-17.5-23.964-.345.053-.69.08-1.037.08-3.782 0-6.86-3.075-6.86-6.856 0-3.782 3.078-6.858 6.86-6.858 1.514 0 2.98.507 4.17 1.42 4.713-9.99 13.653-15.72 22.558-14.331 5.697.888 10.599 4.536 13.806 10.275 3.168 5.669 4.302 12.717 3.19 19.843C103.616 60.939 94.986 68.999 84.02 69M21.03 156l-.027-.834c-.016-.508-.272-12.77 10.122-38.39l.315-.776 1.56.625-.315.775c-10.237 25.232-10.004 37.593-10 37.715l.024.834-1.68.051z"/>
                    <path fill="#A25CBF" d="M100.53 157l-1.63-.459.229-.814c13.645-48.426-10.303-76.457-13.683-80.05-3.74 2.538-7.918 3.466-12.424 2.758-12.85-2.016-24.462-16.532-26.763-19.564C21.743 68.759 7.709 93.203 5.86 96.636c8.631 9.472 17.61 15.008 23.661 17.993 5.084 2.51 8.996 3.683 10.583 4.102 2.728-9.73 6.822-17.593 6.865-17.673l.393-.75 1.5.785-.393.75c-.043.08-4.278 8.217-6.948 18.125-.116.434-.552.702-.99.609-.195-.04-4.86-1.034-11.7-4.4-6.29-3.097-15.666-8.878-24.614-18.834-.14-.154-.217-.356-.217-.565 0-1.15 15.337-29.204 42.241-39.721.358-.137.768-.021.994.293.127.172 12.695 17.32 26.053 19.414 4.268.67 8.201-.285 11.696-2.832.057-.046.118-.086.186-.117.234-.108.594-.158 1.005.193.304.26 29.5 29.247 14.584 82.177l-.23.815z"/>
                    <path fill="#A25CBF" d="M1.363 154l-.115-.825c-2.248-16.17-1.043-29.811.363-38.407C3.139 105.432 5.17 100 5.257 99.773L5.549 99 7 99.624l-.292.773c-.082.217-8.148 22.052-3.912 52.534l.115.825-1.548.244zM135.198 77.02c-.463.071-.94.115-1.428.126-8.36.195-12.486 1.505-12.866 2.716-.161.513.512 1.389 1.8 2.34.272.202.396.548.316.878-.08.33-.35.578-.685.63-.963.15-3.715.904-3.715 2.36 0 1.748 1.816 2.177 2.023 2.22.244.051.455.21.57.43.118.222.133.484.037.715-.001.004-.373.977.108 1.84.422.756 1.43 1.294 2.918 1.554 4.182.735 6.6.653 7.607-.256.326-.294.748-.866.648-2.438-.027-.419.257-.793.665-.877.023-.005 2.515-.56 2.961-2.507.412-1.796-1.738-2.698-1.76-2.706-.316-.13-.521-.438-.52-.781 0-.344.208-.651.525-.778.582-.237 2.15-1.128 2.387-2.364.168-.88-.337-1.895-1.502-3.016l-.089-.086zM128.843 95c-1.311 0-2.909-.174-4.854-.514-2.043-.36-3.423-1.17-4.103-2.415-.478-.873-.491-1.763-.403-2.394-1.154-.49-2.535-1.6-2.535-3.607 0-2.028 1.978-3.088 3.48-3.6-.782-.798-1.499-1.9-1.12-3.114.747-2.375 5.598-3.684 14.423-3.891 2.694-.062 5.147-1.311 6.18-2.513.355-.414.428-.695.416-.795-.064-.518-.263-.903-.585-1.144-.436-.323-1.124-.413-2.002-.259-1.63.285-2.213.288-5.452.303-1.85.01-4.585.024-8.911.096-11.054.185-27.421 17.634-27.585 17.81l-.571.614L94 88.429l.57-.613c.69-.741 17.017-18.146 28.779-18.343 4.337-.073 7.077-.087 8.93-.096 3.192-.015 3.682-.018 5.174-.28 1.361-.235 2.463-.045 3.283.565.695.517 1.129 1.308 1.25 2.286.083.662-.198 1.388-.81 2.102-.795.925-2.259 1.912-4.09 2.517 1.136 1.315 1.587 2.617 1.343 3.88-.254 1.32-1.23 2.264-2.072 2.855.97.807 1.825 2.101 1.43 3.826-.508 2.216-2.5 3.2-3.57 3.577-.024 1.38-.424 2.404-1.218 3.119-.874.789-2.194 1.176-4.156 1.176z"/>
                    <path fill="#A25CBF" d="M130.946 84L121 83.702 121.054 82 131 82.298zM129.874 90L120 89.349 120.126 88 130 88.651zM103.534 118l-1.534-.658.323-.782c6.796-16.503 16.573-24.687 16.986-25.027l.646-.533L121 92.319l-.645.533c-.1.082-9.876 8.281-16.499 24.366l-.322.782zM169.576 85L137 76.63 137.424 75 170 83.37z"/>
                    <path fill="#A25CBF" d="M169 86h-1.616V66.213c0-3.599-2.64-6.527-5.884-6.527s-5.884 2.928-5.884 6.527v13.71H154v-13.71c0-4.529 3.364-8.213 7.5-8.213s7.5 3.684 7.5 8.213V86z"/>
                    <path fill="#A25CBF" d="M197.148 88h-27.975c-.071 0-.144-.01-.213-.027L137 79.828l.427-1.627 31.855 8.118h27.013V67.187c0-3.588-2.784-6.506-6.206-6.506h-28.826V59h28.826c4.362 0 7.911 3.672 7.911 8.187V87.16c0 .464-.381.84-.852.84"/>
                    <path fill="#B580D1" d="M174.812 74c-1 0-1.812.81-1.812 1.81s.811 1.812 1.812 1.812h18.356V82H202v-8h-27.188z"/>
                    <path fill="#A25CBF" d="M194.375 81.41h6.946v-5.82H175.61c-.513 0-.93.396-.93.882s.417.882.93.882h17.927c.464 0 .84.356.84.795v3.26zm7.786 1.59h-8.625c-.464 0-.84-.355-.84-.795v-3.26H175.61c-1.438 0-2.609-1.109-2.609-2.473 0-1.364 1.17-2.472 2.61-2.472h26.55c.465 0 .84.355.84.795v7.41c0 .44-.375.795-.84.795z"/>
                    <path fill="#B580D1" d="M175.5 87L175.5 156"/>
                    <mask id="n2hmoj3qlb" fill="#fff">
                        <use xlink:href="#03ympo753a"/>
                    </mask>
                    <path fill="#A25CBF" d="M176 156L177 156 177 86 176 86z" mask="url(#n2hmoj3qlb)"/>
                    <path fill="#B580D1" d="M181.5 87L181.5 156" mask="url(#n2hmoj3qlb)"/>
                    <path fill="#A25CBF" d="M181 156L182 156 182 86 181 86zM172.486 45l-1.495-2.389H168V41h3.495c.313 0 .602.154.757.403L174 44.194l-1.514.806zM177.5 52c-.311 0-.6-.153-.755-.403L175 48.806l1.51-.806.99 1.583.99-1.583 1.51.806-1.745 2.791c-.156.25-.444.403-.755.403M181.514 45L180 44.194l1.748-2.791c.155-.25.444-.403.757-.403H186v1.611h-2.991L181.514 45zM159.006 1.733h6.594V.036h-6.594v1.697zm9.819 0h6.593V.036h-6.593v1.697zm9.818 0h6.594V.036h-6.594v1.697zm9.819 0h6.594V.036h-6.594v1.697zm-36.743 3.425l-1.54-.687.342-.776c.781-1.774 2.368-3.086 4.243-3.51l.821-.185.37 1.655-.823.186c-1.357.306-2.505 1.257-3.071 2.542l-.342.775zm50.572.054l-.33-.78c-.552-1.292-1.688-2.256-3.043-2.578l-.818-.196.387-1.651.82.195c1.872.446 3.442 1.778 4.201 3.561l.332.78-1.549.669zM150 14.714h1.684V8.072H150v6.642zm52.316.062H204v-6.64h-1.684v6.64zM150 24.605h1.684v-6.642H150v6.642zm52.316.062H204v-6.642h-1.684v6.642zM150 34.494h1.684v-6.641H150v6.641zm52.316.063H204v-6.641h-1.684v6.64zm-47.271 8.41l-.803-.259c-1.833-.59-3.298-2.04-3.918-3.875l-.27-.803 1.593-.546.271.803c.45 1.33 1.51 2.378 2.837 2.805l.802.258-.512 1.616zm43.84.013l-.496-1.622.806-.25c1.333-.412 2.405-1.448 2.868-2.772l.28-.799 1.589.564-.28.8c-.64 1.828-2.122 3.26-3.962 3.83l-.805.249zM158.54 43h6.594v-1.697h-6.594V43zm30.266 0h6.593v-1.697h-6.593V43z" mask="url(#n2hmoj3qlb)"/>
                </g>
            </g>
        </g>
    </g>
</svg>
