<?xml version="1.0" encoding="UTF-8"?>
<svg width="20px" height="20px" viewBox="0 0 20 20" version="1.1" xmlns="http://www.w3.org/2000/svg" xmlns:xlink="http://www.w3.org/1999/xlink">
    <title>Icons/question/default Copy 8</title>
    <g id="----Failed-transactions" stroke="none" stroke-width="1" fill="none" fill-rule="evenodd">
        <g id="FailedTransaction/Drawer/Details/TemplateScheduled/1024" transform="translate(-650.000000, -384.000000)">
            <g id="Group-9" transform="translate(609.000000, -1.000000)">
                <g id="Group-3-Copy-2" transform="translate(41.000000, 385.000000)">
                    <g id="Fill-798-+-Fill-799-Copy" fill="#63666A">
                        <path d="M10,18 C5.589,18 2,14.411 2,10 C2,5.589 5.589,2 10,2 C14.411,2 18,5.589 18,10 C18,14.411 14.411,18 10,18 M0,10 C0,15.514 4.486,20 10,20 C15.515,20 20,15.514 20,10 C20,4.486 15.515,0 10,0 C4.486,0 0,4.486 0,10 Z" id="Fill-799"></path>
                    </g>
                    <g id="Group-2" transform="translate(7.397200, 6.069500)">
                        <path d="M3.409,6.136 L2.046,6.136 L2.046,4.091 L2.727,4.091 C3.479,4.091 4.091,3.479 4.091,2.727 C4.091,1.975 3.479,1.363 2.727,1.363 C1.975,1.363 1.364,1.975 1.364,2.727 L8.8817842e-14,2.727 C8.8817842e-14,1.223 1.223,-2.43804976e-13 2.727,-2.43804976e-13 C4.231,-2.43804976e-13 5.454,1.223 5.454,2.727 C5.454,3.995 4.584,5.064 3.409,5.368 L3.409,6.136 Z" id="Stroke-6" stroke="#63666A" stroke-width="0.6" fill="#63666A"></path>
                        <g id="Group-11" transform="translate(1.602800, 6.930500)">
                            <path d="M1.8062,1.1215 C1.8062,1.4985 1.5012,1.8035 1.1242,1.8035 C0.7482,1.8035 0.4432,1.4985 0.4432,1.1215 C0.4432,0.7455 0.7482,0.4395 1.1242,0.4395 C1.5012,0.4395 1.8062,0.7455 1.8062,1.1215" id="Fill-8" fill="#63666A"></path>
                            <path d="M1.8062,1.1215 C1.8062,1.4985 1.5012,1.8035 1.1242,1.8035 C0.7482,1.8035 0.4432,1.4985 0.4432,1.1215 C0.4432,0.7455 0.7482,0.4395 1.1242,0.4395 C1.5012,0.4395 1.8062,0.7455 1.8062,1.1215" id="Stroke-10" stroke="#63666A" stroke-width="0.6"></path>
                        </g>
                    </g>
                </g>
            </g>
        </g>
    </g>
</svg>