<?xml version="1.0" encoding="UTF-8"?>
<svg width="18px" height="20px" viewBox="0 0 18 20" version="1.1" xmlns="http://www.w3.org/2000/svg" xmlns:xlink="http://www.w3.org/1999/xlink">
    <!-- Generator: Sketch 57.1 (83088) - https://sketch.com -->
    <title>Icons/Notification/default_white/dot Copy 2@3x</title>
    <desc>Created with Sketch.</desc>
    <g id="--Accounts-overview" stroke="none" stroke-width="1" fill="none" fill-rule="evenodd">
        <g id="AcctOverview/1440" transform="translate(-1221.000000, -29.000000)">
            <g id="Icons/Notification/default_white/dot" transform="translate(1218.000000, 27.000000)">
                <polygon id="Rectangle" points="0 0 24 0 24 24 0 24"></polygon>
                <g id="Group-Copy-2" stroke-width="1" fill-rule="evenodd" transform="translate(4.000000, 3.000000)">
                    <path d="M10.2676949,0.490570956 C9.65014244,0.190953258 8.93480775,1.33226763e-14 8.20162894,1.33226763e-14 L7.79734496,1.33226763e-14 C6.37003784,1.33226763e-14 5.00840121,0.724713484 4.30654781,1.56572571 C2.7478997,3.43296669 2.93465016,5.09883855 2.93465016,7.70586878 C2.93465016,10.3505884 1.95677548,12.0466118 0,12.7950158 L0,14.4063721 L7.79734496,14.4063721 L8.20162894,14.4063721 L8.20162894,14.4063721 L16,14.4063721 L16,12.7950158 C14.1112717,12.0726377 13.1335892,10.4674014 13.0678751,7.97833866" id="Path" stroke="#FFFFFF" stroke-width="2"></path>
                    <path d="M5,16.5 L11,16.5 C10.3949382,17.8812012 9.39493815,18.5718018 8,18.5718018 C6.60506185,18.5718018 5.60506185,17.8812012 5,16.5 Z" id="Path-7" fill="#FFFFFF"></path>
                </g>
                <circle id="Oval-Copy-2" fill="#FF0037" fill-rule="evenodd" cx="17" cy="6.75" r="2.5"></circle>
            </g>
        </g>
    </g>
</svg>