<svg xmlns="http://www.w3.org/2000/svg" width="24" height="24" viewBox="0 0 24 24">
    <g fill="none" fill-rule="evenodd">
        <path d="M0 0h24v24H0z"/>
        <path stroke="#FFF" stroke-width="2" d="M12.202 17.406H20v-1.611c-1.957-.748-2.936-2.444-2.936-5.09 0-2.606.187-4.272-1.372-6.14C14.991 3.726 13.63 3 12.202 3h-.405c-1.427 0-2.789.725-3.49 1.566-1.56 1.867-1.372 3.533-1.372 6.14 0 2.645-.978 4.34-2.935 5.089v1.611h8.202z"/>
        <path fill="#FFF" d="M9 19.5h6c-.605 1.381-1.605 2.072-3 2.072s-2.395-.69-3-2.072z"/>
    </g>
</svg>
