<svg xmlns="http://www.w3.org/2000/svg" xmlns:xlink="http://www.w3.org/1999/xlink" width="24" height="24" viewBox="0 0 24 24">
    <defs>
        <path id="a" d="M20.48 7.78c1.054 4.57-1.219 9.143-5.226 11.173l2.205.71-.587 1.622-4.64-1.518a.83.83 0 0 1-.557-.976l.03-.105 1.66-4.59 1.64.536-1.014 2.707c3.428-1.525 5.415-5.32 4.54-9.109-.992-4.297-5.297-6.987-9.595-5.995-4.298.992-6.987 5.297-5.995 9.595.084.363.193.723.325 1.068l-1.868.712c-.165-.43-.301-.878-.406-1.33C-.248 6.907 3.114 1.527 8.486.286 13.86-.954 19.24 2.408 20.48 7.781zM12.034 6v6H7v-2h3.034V6h2z"/>
    </defs>
    <g fill="none" fill-rule="evenodd">
        <path fill="#EFF1F1" d="M-623-476H817v866H-623z"/>
        <path fill="#FFF" d="M-83-454h780v816H-83z"/>
        <path d="M0 0h24v24H0z"/>
        <g transform="translate(1 1)">
            <mask id="b" fill="#fff">
                <use xlink:href="#a"/>
            </mask>
            <use fill="#000" xlink:href="#a"/>
            <path fill="#63666A" d="M-1-1h24v24H-1z" mask="url(#b)"/>
        </g>
    </g>
</svg>
