<svg xmlns="http://www.w3.org/2000/svg" width="20" height="21" viewBox="0 0 20 21">
    <g fill="none" fill-rule="evenodd">
        <g fill="#005EB8">
            <g>
                <g>
                    <g>
                        <g>
                            <path d="M5.093 1.739c.269-.126.585-.085.813.105L8.5 4.006c.251-.032.495-.048.736-.048h3.82c3.37 0 6.11 2.742 6.11 6.112 0 2.559-1.582 4.752-3.819 5.66v1.978H13.82v-1.58c-.25.031-.504.053-.763.053h-3.82c-.257 0-.512-.02-.764-.052v1.58H6.944v-1.984c-1.24-.508-2.307-1.414-2.994-2.6H1.597c-.421 0-.764-.342-.764-.764v-3.82c0-.42.343-.763.764-.763h1.976c.259-.636.624-1.23 1.08-1.747v-3.6c0-.297.172-.566.44-.692zM6.18 4.062V6.33c0 .2-.08.392-.218.535-.52.53-.906 1.186-1.117 1.894-.097.325-.395.547-.733.547H2.361v2.291h2.05c.294 0 .563.17.69.436.756 1.592 2.38 2.62 4.135 2.62h3.82c2.527 0 4.583-2.056 4.583-4.583 0-2.528-2.056-4.584-4.583-4.584h-3.82c-.263 0-.532.026-.823.079-.222.04-.453-.02-.626-.165L6.181 4.062zm.763 3.716c.423 0 .764.343.764.764 0 .422-.341.764-.764.764-.421 0-.763-.342-.763-.764 0-.421.342-.764.763-.764zm6.875-.764v1.528H9.236V7.014h4.583z" transform="translate(-32 -735) translate(0 614) translate(32 109.093) translate(0 11.959)"/>
                        </g>
                    </g>
                </g>
            </g>
        </g>
    </g>
</svg>
