<svg xmlns="http://www.w3.org/2000/svg" xmlns:xlink="http://www.w3.org/1999/xlink" width="24" height="24" viewBox="0 0 24 24">
    <defs>
        <path id="a" d="M7 0v3h7v2h1V0h2v3h1c1.103 0 2 .898 2 2v13c0 1.103-.897 2-2 2H2c-1.103 0-2-.897-2-2V5c0-1.102.897-2 2-2h2v2h1V0h2zm11 7H2v11h15.997L18 7zm-7 5v4H7v-4h4zm5 0v4h-4v-4h4z"/>
    </defs>
    <g fill="none" fill-rule="evenodd">
        <path fill="#EFF1F1" d="M-607-735H833v970H-607z"/>
        <path fill="#FFF" d="M-67-710h780v910H-67z"/>
        <path d="M0 0h24v24H0z"/>
        <g transform="translate(2 2)">
            <mask id="b" fill="#fff">
                <use xlink:href="#a"/>
            </mask>
            <use fill="#63666A" xlink:href="#a"/>
            <path fill="#63666A" d="M-2-2h24v24H-2z" mask="url(#b)"/>
        </g>
        <path d="M0 0h24v24H0z"/>
    </g>
</svg>
