<?xml version="1.0" encoding="UTF-8"?>
<svg width="24px" height="24px" viewBox="0 0 24 24" version="1.1" xmlns="http://www.w3.org/2000/svg" xmlns:xlink="http://www.w3.org/1999/xlink">
    <!-- Generator: Sketch 62 (91390) - https://sketch.com -->
    <title>Icons/Send</title>
    <desc>Created with Sketch.</desc>
    <defs>
        <path d="M20.1232,0.8876 C20.9872,0.8876 21.4132,1.4126 21.5522,1.5856 C22.0812,2.2366 22.1462,3.1566 21.7142,3.8756 L21.7142,3.8756 L18.0392,9.9996 L21.7152,16.1266 C22.1462,16.8446 22.0812,17.7646 21.5522,18.4166 C21.4132,18.5876 20.9882,19.1116 20.1242,19.1116 C19.1162,19.1116 17.6712,18.4676 12.2942,16.0686 C9.5372,14.8396 5.7732,13.1616 0.6022,10.9186 C0.2362,10.7596 0.0002,10.3996 0.0002,10.0006 C0.0002,9.6026 0.2362,9.2416 0.6022,9.0826 C5.7922,6.8326 9.5642,5.1496 12.3232,3.9186 C17.6772,1.5306 19.1162,0.8876 20.1222,0.8876 Z M16.3072,11.0006 L5.7912,11.0006 C8.7972,12.3206 11.1992,13.3906 13.1092,14.2426 C16.9872,15.9716 19.1162,16.9216 19.9162,17.0856 L19.9162,17.0856 L16.3072,11.0006 Z M19.9652,2.9046 C19.2072,3.0366 17.0802,3.9856 13.1382,5.7446 C11.2242,6.5986 8.8122,7.6736 5.7912,9.0006 L5.7912,9.0006 L16.3062,9.0006 Z" id="path-1"></path>
    </defs>
    <g id="Icons/Send" stroke="none" stroke-width="1" fill="none" fill-rule="evenodd">
        <g id="Icon" transform="translate(12.000000, 12.000000) scale(-1, 1) translate(-12.000000, -12.000000) translate(1.000000, 2.000000)">
            <mask id="mask-2" fill="white">
                <use xlink:href="#path-1"></use>
            </mask>
            <use id="Paths" fill-opacity="0.9" fill="#000000" xlink:href="#path-1"></use>
            <rect id="Mask" fill="#005EB8" mask="url(#mask-2)" x="-1" y="-2" width="24" height="24"></rect>
        </g>
    </g>
</svg>