<svg xmlns="http://www.w3.org/2000/svg" xmlns:xlink="http://www.w3.org/1999/xlink" width="24" height="24" viewBox="0 0 24 24">
    <defs>
        <path id="prefix__a" d="M18 14h-4.586l-2-2 2-2H18v4zm-2-8v2h-3c-.265 0-.519.105-.707.293l-3 3c-.391.392-.391 1.024 0 1.416l3 3c.188.186.442.291.707.291h2.998l-.001 2H2V6h14zm-1 5c.552 0 1 .448 1 1s-.448 1-1 1-1-.448-1-1 .448-1 1-1zm-2.483-8.73L13.382 4H8.193l4.324-1.73zM19 8h-1V6c0-1.103-.897-2-2-2h-.382L13.894.554c-.232-.466-.782-.675-1.266-.483l-9.821 3.93H2C.897 4 0 4.896 0 6v12c0 1.102.897 2 2 2h14c1.103 0 2-.898 2-2v-2h1c.552 0 1-.449 1-1V9c0-.553-.448-1-1-1z"/>
    </defs>
    <g fill="none" fill-rule="evenodd" transform="translate(2 2)">
        <mask id="prefix__b" fill="#fff">
            <use xlink:href="#prefix__a"/>
        </mask>
        <use fill="#005EB8" xlink:href="#prefix__a"/>
        <path fill="#63666A" d="M-2 -3H22V22H-2z" mask="url(#prefix__b)"/>
    </g>
</svg>
