<svg xmlns="http://www.w3.org/2000/svg" xmlns:xlink="http://www.w3.org/1999/xlink" width="24" height="24" viewBox="0 0 24 24">
    <defs>
        <path id="a" d="M20 4c1.1 0 2 .9 2 2v12c0 1.1-.9 2-2 2H4c-1.1 0-2-.9-2-2V6c0-1.1.9-2 2-2zm0 2H4v12h16V6zm-2 8v2h-4v-2h4zm-9-1c1.841 0 3 1.159 3 3H6c0-1.841 1.159-3 3-3zm9-2v2h-4v-2h4zM9 8a2 2 0 1 1-.001 4.001A2 2 0 0 1 9 8z"/>
    </defs>
    <g fill="none" fill-rule="evenodd">
        <path fill="#FFF" fill-opacity="0" d="M0 0h24v24H0z"/>
        <mask id="b" fill="#fff">
            <use xlink:href="#a"/>
        </mask>
        <use fill="#63666A" xlink:href="#a"/>
        <path fill="#63666A" d="M0 0h24v24H0z" mask="url(#b)"/>
    </g>
</svg>
