<svg xmlns="http://www.w3.org/2000/svg" width="24" height="24" viewBox="0 0 24 24">
  <path fill="#63666A" fill-rule="evenodd" d="M18.3998,2 C19.23808,2 19.927628,2.8095425 19.9944871,3.83618138 L19.9998,4 L19.9998,20 C19.9998,21.04785 19.352166,21.909785 18.5308549,21.9933589 L18.3998,22 L5.5998,22 C4.76152,22 4.071972,21.1904575 4.0051129,20.1638186 L3.9998,20 L3.9998,4 C3.9998,2.95215 4.647434,2.090215 5.4687451,2.00664113 L5.5998,2 L18.3998,2 Z M17.9998,4 L5.9998,4 L5.9998,20 L17.99755,20 L17.9998,4 Z M15.9998,15 L15.9998,17 L7.9998,17 L7.9998,15 L15.9998,15 Z M15.9998,11 L15.9998,13 L7.9998,13 L7.9998,11 L15.9998,11 Z M13.9998,7 L13.9998,9 L7.9998,9 L7.9998,7 L13.9998,7 Z"/>
</svg>
