<svg xmlns="http://www.w3.org/2000/svg" width="20" height="21" viewBox="0 0 20 21">
    <g fill="none" fill-rule="evenodd">
        <g fill="#005EB8">
            <g>
                <g>
                    <g>
                        <g>
                            <path d="M18.333 10c0 2.84-2.242 5.15-5 5.15H7.012l1.91 1.97-1.178 1.213L4.411 14.9c-.326-.335-.326-.878 0-1.214l3.333-3.433 1.178 1.213-1.91 1.969h6.321c1.839 0 3.334-1.54 3.334-3.434zm-6.077-8.333L15.589 5.1c.326.335.326.878 0 1.214l-3.333 3.433-1.178-1.213 1.91-1.969H6.667c-1.839 0-3.334 1.54-3.334 3.434H1.667c0-2.84 2.242-5.15 5-5.15h6.321l-1.91-1.97 1.178-1.213z" transform="translate(-32 -1181) translate(0 1060) translate(32 109.093) translate(0 11.959)"/>
                        </g>
                    </g>
                </g>
            </g>
        </g>
    </g>
</svg>
