<svg xmlns="http://www.w3.org/2000/svg" xmlns:xlink="http://www.w3.org/1999/xlink" width="219" height="206" viewBox="0 0 219 206">
    <defs>
        <path id="0837jjwlva" d="M0 205.097L219 205.097 219 0 0 0z"/>
    </defs>
    <g fill="none" fill-rule="evenodd">
        <g>
            <g>
                <g>
                    <g transform="translate(-669 -170) translate(-2 88) translate(64 33.584) translate(607 48.416)">
                        <path fill="#F1E4F5" d="M130.202 115.018H88.798c-1.533 0-2.788-1.255-2.788-2.788v-3.428c0-1.534 1.255-2.788 2.788-2.788h41.404c1.533 0 2.787 1.254 2.787 2.788v3.428c0 1.533-1.254 2.788-2.787 2.788"/>
                        <mask id="0gz7yr3ydb" fill="#fff">
                            <use xlink:href="#0837jjwlva"/>
                        </mask>
                        <path fill="#F1E4F5" d="M17.498 111.458L201.501 111.458 201.501 10.757 17.498 10.757z" mask="url(#0gz7yr3ydb)"/>
                        <path fill="#A25CBF" d="M202.296 111.458h-1.59V6.188c0-2.536-2.062-4.598-4.598-4.598H22.891c-2.535 0-4.598 2.062-4.598 4.598v105.27h-1.59V6.188c0-3.412 2.777-6.187 6.188-6.187h173.217c3.412 0 6.188 2.775 6.188 6.187v105.27z" mask="url(#0gz7yr3ydb)"/>
                        <path fill="#A25CBF" d="M17.498 11.551L201.501 11.551 201.501 9.962 17.498 9.962z" mask="url(#0gz7yr3ydb)"/>
                        <path fill="#FFF" d="M132.748 111.458c-.614 1.96-2.424 3.393-4.586 3.393H90.839c-2.164 0-3.973-1.433-4.588-3.393H.795v6.829c0 2.836 2.3 5.136 5.136 5.136h207.138c2.837 0 5.136-2.3 5.136-5.136v-6.83h-85.457z" mask="url(#0gz7yr3ydb)"/>
                        <path fill="#A25CBF" d="M1.59 112.252v6.035c0 2.394 1.946 4.341 4.34 4.341h207.14c2.394 0 4.34-1.947 4.34-4.341v-6.035H133.3c-.883 2.052-2.88 3.393-5.139 3.393H90.839c-2.259 0-4.256-1.34-5.14-3.393H1.59zm211.48 11.966H5.93c-3.27 0-5.93-2.66-5.93-5.931v-7.624h86.835l.174.557c.532 1.696 2.071 2.836 3.83 2.836h37.322c1.759 0 3.298-1.14 3.829-2.836l.175-.557H219v7.624c0 3.27-2.66 5.93-5.93 5.93z" mask="url(#0gz7yr3ydb)"/>
                        <path fill="#FFF" d="M152.379 96.426H66.62c-.934 0-1.691-.757-1.691-1.69V27.478c0-.934.757-1.69 1.691-1.69h85.758c.934 0 1.69.756 1.69 1.69v67.258c0 .933-.756 1.69-1.69 1.69" mask="url(#0gz7yr3ydb)"/>
                        <path fill="#FFF" d="M95.413 83.065L121.019 83.065 121.019 66.8 95.413 66.8z" mask="url(#0gz7yr3ydb)"/>
                        <path fill="#A25CBF" d="M121.02 65.211H95.413c-.878 0-1.59.712-1.59 1.59v16.264c0 .877.712 1.59 1.59 1.59h25.605c.878 0 1.59-.713 1.59-1.59V66.8c0-.877-.712-1.589-1.59-1.589zM95.413 83.065h25.605V66.8H95.414v16.265z" mask="url(#0gz7yr3ydb)"/>
                        <path fill="#A25CBF" d="M109.012 78.256h-1.59v-1.942c-1.162-.343-2.013-1.42-2.013-2.693 0-1.547 1.26-2.807 2.808-2.807 1.547 0 2.807 1.26 2.807 2.807h-1.59c0-.67-.546-1.217-1.217-1.217-.672 0-1.218.546-1.218 1.217 0 .672.546 1.218 1.218 1.218h.795v3.417zM97.957 65.85l-2.56-7.774c-1.925-5.842 1.263-12.16 7.104-14.083 5.837-1.924 12.159 1.262 14.083 7.103l2.56 7.775-1.51.497-2.56-7.774c-1.65-5.009-7.066-7.743-12.076-6.091-2.426.798-4.396 2.495-5.547 4.776-1.15 2.28-1.344 4.873-.544 7.3l2.56 7.773-1.51.498zM112.202 40.078L110.659 39.695 111.938 34.545 113.48 34.929zM123.873 43.731L122.836 42.526 129.803 36.53 130.84 37.735zM128.504 57.119L124.399 57.024 124.436 55.435 128.541 55.531z" mask="url(#0gz7yr3ydb)"/>
                        <path fill="#F1E4F5" d="M76.11 159.316l-69.524 10.79c.782 10.733 6.906 23.568 6.906 23.568l.116-.01c3.225 8.318 16.225 13.116 30.73 10.889 12.67-1.946 22.635-8.662 25.341-16.263.18-.019.282-.03.283-.032 8.893-15.194 6.148-28.942 6.148-28.942" mask="url(#0gz7yr3ydb)"/>
                        <path fill="#FFF" d="M12.243 60.732l49.083-7.537c2.282-.35 4.417 1.224 4.77 3.518l15.003 97.7c.352 2.293-1.213 4.437-3.494 4.787l-49.084 7.538c-2.281.35-4.417-1.225-4.77-3.518L8.75 65.519c-.353-2.293 1.21-4.436 3.493-4.787" mask="url(#0gz7yr3ydb)"/>
                        <path fill="#A25CBF" d="M61.96 53.941c-.17 0-.34.013-.514.039l-49.083 7.538c-.893.137-1.679.615-2.213 1.347-.535.734-.754 1.633-.616 2.533l15.003 97.7c.285 1.857 2.02 3.135 3.864 2.854l49.083-7.538c.893-.137 1.679-.616 2.213-1.347.535-.734.755-1.634.616-2.533l-15.002-97.7c-.259-1.684-1.708-2.893-3.352-2.893m-34.072 113.64c-2.414 0-4.542-1.773-4.92-4.24L7.964 65.64c-.203-1.318.118-2.636.902-3.712.786-1.076 1.942-1.779 3.257-1.98l49.083-7.538c2.702-.42 5.258 1.459 5.675 4.182l15.003 97.7c.202 1.319-.118 2.636-.902 3.711-.786 1.076-1.943 1.78-3.257 1.982l-49.083 7.538c-.253.039-.507.057-.755.057" mask="url(#0gz7yr3ydb)"/>
                        <path fill="#FFF" d="M58.453 122.331L35.728 125.821 33.511 111.386 56.236 107.897z" mask="url(#0gz7yr3ydb)"/>
                        <path fill="#A25CBF" d="M56.238 106.307c-.08 0-.161.006-.243.018l-22.724 3.49c-.868.134-1.463.945-1.33 1.812l2.216 14.435c.064.417.29.79.63 1.04.276.201.605.308.94.308.082 0 .163-.006.242-.018l22.726-3.49c.415-.064.79-.291 1.04-.63.25-.34.354-.766.29-1.182l-2.217-14.435c-.121-.786-.798-1.348-1.57-1.348m-.002 1.59l2.217 14.435-22.725 3.489-2.217-14.435 22.725-3.49" mask="url(#0gz7yr3ydb)"/>
                        <path fill="#A25CBF" d="M45.65 119.929l-.255-1.664c-1.087-.174-1.987-1.03-2.163-2.175-.106-.687.062-1.374.474-1.934.41-.56 1.016-.927 1.703-1.032 1.414-.216 2.747.757 2.967 2.176l-1.572.241c-.084-.551-.604-.934-1.153-.847-.268.042-.503.185-.664.402-.16.218-.225.485-.184.752.085.553.603.93 1.155.848l.785-.12.478 3.112-1.571.24zM35.697 109.827l-3.166-6.632c-2.4-5.023-.263-11.061 4.76-13.46 5.027-2.398 11.064-.262 13.461 4.761l3.167 6.633-1.435.685-3.166-6.633c-2.02-4.232-7.106-6.03-11.342-4.012-4.232 2.021-6.032 7.11-4.012 11.342l3.167 6.632-1.434.684zM9.859 72.753L9.618 71.182 66.965 62.376 67.206 63.946zM23.433 161.143L23.192 159.572 80.539 150.766 80.779 152.336z" mask="url(#0gz7yr3ydb)"/>
                        <path fill="#F1E4F5" d="M85.198 161.434c1.49 3.872.201 7.97-6.56 10.573-6.763 2.601-13.452 1.573-14.942-2.299-1.49-3.87 2.784-9.119 9.546-11.72 6.762-2.603 10.466-.426 11.956 3.446" mask="url(#0gz7yr3ydb)"/>
                        <path fill="#A25CBF" d="M78.565 157.64c-1.463 0-3.147.362-5.037 1.089-6.235 2.399-10.397 7.297-9.09 10.695 1.308 3.395 7.677 4.24 13.914 1.842 2.993-1.153 4.998-2.648 5.959-4.444.814-1.521.863-3.239.145-5.102-1.041-2.71-3.046-4.08-5.891-4.08m-7.235 16.615c-4.083 0-7.311-1.495-8.376-4.26-1.671-4.348 2.722-9.947 10.003-12.75 3.007-1.156 10.29-3.093 12.983 3.904.879 2.282.8 4.503-.227 6.422-1.146 2.143-3.43 3.885-6.79 5.177-2.648 1.018-5.26 1.507-7.593 1.507" mask="url(#0gz7yr3ydb)"/>
                        <path fill="#F1E4F5" d="M91.165 148.52c-.197 4.26-2.43 7.62-8.046 7.36-5.615-.26-10.008-3.926-9.81-8.187.196-4.26 4.91-7.504 10.525-7.244 5.616.26 7.53 3.81 7.331 8.07" mask="url(#0gz7yr3ydb)"/>
                        <path fill="#A25CBF" d="M83.2 141.229c-2.324 0-4.51.63-6.21 1.801-1.779 1.224-2.804 2.894-2.888 4.7-.177 3.816 3.885 7.116 9.053 7.356 2.404.11 4.232-.476 5.446-1.74 1.077-1.124 1.673-2.76 1.77-4.863.098-2.102-.344-3.785-1.313-5.004-1.092-1.373-2.862-2.125-5.26-2.236-.2-.01-.401-.014-.599-.014m.524 15.46c-.21 0-.423-.006-.64-.016-6.045-.28-10.786-4.324-10.568-9.017.106-2.315 1.376-4.422 3.574-5.935 2.13-1.466 4.903-2.2 7.782-2.066 2.877.133 5.04 1.087 6.431 2.834 1.198 1.507 1.771 3.606 1.657 6.068-.114 2.462-.878 4.498-2.212 5.888-1.429 1.49-3.453 2.244-6.024 2.244" mask="url(#0gz7yr3ydb)"/>
                        <path fill="#F1E4F5" d="M14.85 196.194s-10.237-16.925-8.236-36.037c1.475-14.098 9.609-29.387 33.42-39.954.186-.254 6.962 10.01-2.928 19.216-9.891 9.206-8.586 19.18-8.586 19.18s18.995.021 16.183 33.237" mask="url(#0gz7yr3ydb)"/>
                        <path fill="#A25CBF" d="M14.17 196.605c-.104-.172-10.351-17.374-8.347-36.531 1.855-17.729 13.193-31.358 33.694-40.51l.165-.227.5.08c1.002.172 2.185 3.454 2.424 4.257 1.02 3.425 1.732 10.1-4.959 16.326-8.067 7.51-8.453 15.561-8.38 17.854 1.706.188 6.017 1.073 9.84 5.239 5.363 5.842 7.512 15.535 6.388 28.81l-1.583-.134c1.082-12.786-.918-22.062-5.945-27.568-4.308-4.72-9.399-4.808-9.45-4.808l-.693-.005-.092-.687c-.056-.423-1.243-10.487 8.832-19.864 3.27-3.044 4.988-6.509 5.105-10.299.111-3.57-1.25-6.368-1.862-7.362-19.721 8.902-30.621 22.042-32.404 39.063-1.947 18.614 8.026 35.377 8.127 35.544l-1.36.822z" mask="url(#0gz7yr3ydb)"/>
                        <path fill="#F1E4F5" d="M92.211 124.096c-1.079-4.46-6.612-6.383-13.275-4.769-1.086.262-2.108.62-3.065 1.043l2.397 15.613c1.464.032 3.009-.123 4.578-.503 6.664-1.613 10.445-6.924 9.365-11.384" mask="url(#0gz7yr3ydb)"/>
                        <path fill="#A25CBF" d="M76.75 120.862l2.2 14.328c1.236-.023 2.48-.185 3.71-.483 2.97-.719 5.509-2.261 7.148-4.343 1.509-1.916 2.103-4.132 1.631-6.081-.583-2.41-2.518-3.56-4.039-4.1-2.25-.802-5.19-.831-8.278-.084-.794.192-1.59.448-2.372.763m1.892 15.92c-.13 0-.26-.001-.39-.004l-.668-.015-2.59-16.874.555-.246c1.048-.462 2.124-.828 3.2-1.09 3.382-.818 6.645-.772 9.185.132 2.671.95 4.464 2.805 5.05 5.223.587 2.427-.115 5.138-1.927 7.44-1.859 2.36-4.709 4.102-8.024 4.904-1.454.352-2.928.53-4.39.53M67.846 193.13l-1.306-.906c6.997-10.08 8.298-19.247 8.31-19.339l1.576.21c-.053.389-1.351 9.622-8.58 20.036M56.31 45.076L56.07 39.65 57.658 39.58 57.898 45.006zM70.418 45.192L69.081 44.331 74.179 36.423 75.515 37.284zM74.805 58.08L74.389 56.546 78.445 55.447 78.861 56.982zM32.418 63.863L32.177 62.292 42.778 60.664 43.019 62.235z" mask="url(#0gz7yr3ydb)"/>
                    </g>
                </g>
            </g>
        </g>
    </g>
</svg>
