<svg xmlns="http://www.w3.org/2000/svg" xmlns:xlink="http://www.w3.org/1999/xlink" width="219" height="205" viewBox="0 0 219 205">
    <defs>
        <path id="8dninjs78a" d="M0 204.768L219 204.768 219 0 0 0z"/>
    </defs>
    <g fill="none" fill-rule="evenodd">
        <g>
            <g>
                <g>
                    <g transform="translate(-673 -170) translate(-2 88) translate(64 33.58) translate(611 48.42)">
                        <path fill="#F1E4F5" d="M200.846 76.424H8.16c-4.035 0-7.305-3.27-7.305-7.304V7.305C.855 3.27 4.125 0 8.16 0h192.686c4.035 0 7.305 3.27 7.305 7.305V69.12c0 4.034-3.27 7.304-7.305 7.304"/>
                        <path fill="#E1C2EF" d="M119.913 189.12c14.292-18.999 13.737-44.865 13.737-44.865s.667-14.188 15.063-14.678c.098-.098 2.35 8.912 9.402 16.649 0 0 6.757-9.304 7.443-21.742 0-.098 24.777.472 35.06 26.433 10.283 25.962 7.051 52.992 7.051 52.992h-87.756v-14.788z"/>
                        <path fill="#A25CBF" d="M120.768 203.054h86.127c.414-4.539 2.064-28.758-7.072-51.821-9.069-22.896-29.397-25.569-33.47-25.865-.942 12.14-7.271 20.98-7.546 21.36l-.617.849-.708-.776c-4.053-4.448-7.2-9.945-9.355-16.34-12.828.822-13.595 13.296-13.623 13.836.006.2.393 26.112-13.736 45.108v13.649zm87.66 1.71h-89.37v-15.93l.172-.227c13.941-18.534 13.571-44.078 13.565-44.334.008-.206.864-14.817 15.549-15.537l.1-.1.467.108c.482.113.589.433.802 1.069 1.948 5.822 4.74 10.866 8.304 15.013 1.641-2.591 6.144-10.53 6.688-20.389l.036-.667.662-.128c.226-.047 25.463.335 36.01 26.96 10.245 25.864 7.138 53.136 7.105 53.409l-.09.753z"/>
                        <path fill="#F1E4F5" d="M144.178 85.563s-1.254 9.47-8.321 15.104c0 0-.284 17.395 17.529 22.298 7.715 1.911 17.861-11.628 17.861-11.628s-1.383-16.972-4.886-21.756c.147.015-7.4 4.566-22.183-4.018"/>
                        <path fill="#A25CBF" d="M136.716 101.07c.072 2.6 1.198 16.75 16.897 21.071 6.496 1.611 15.329-9.243 16.753-11.062-.205-2.266-1.515-15.61-4.314-20.408-2.305.94-9.445 2.743-21.248-3.77-.588 2.76-2.535 9.544-8.088 14.17m18.207 22.932c-.588 0-1.17-.065-1.743-.207-18.262-5.028-18.181-22.962-18.179-23.142l.007-.404.316-.251c6.703-5.344 7.994-14.458 8.006-14.55l.171-1.267 1.106.642c11.33 6.58 18.224 5.195 20.448 4.418l-.515-.703 2.482.249.123.418c3.535 5.078 4.898 21.365 4.955 22.062l.026.322-.194.26c-.398.531-9.205 12.153-17.009 12.153"/>
                        <path fill="#FFF" d="M164.637 93.491s-18.853 5.376-25.255-18.897c0 0 22.204-23.887 39.227 4.858 17.023 28.743 12.181 56.16-14.348 67.353.014-.146 10.249-29.773.376-53.314"/>
                        <path fill="#A25CBF" d="M165.133 92.463l.293.697c8.395 20.02 2.485 44.333.202 52.102 10.128-4.72 17.098-12.16 20.213-21.607 4.14-12.56 1.31-28.103-7.968-43.768-4.946-8.351-10.79-12.945-17.371-13.652-9.809-1.056-18.409 6.87-20.168 8.61 2.12 7.71 5.743 13.073 10.775 15.947 6.516 3.722 13.228 1.895 13.295 1.876l.729-.205zm-1.862 55.687l.139-1.428c.01-.097.022-.135.089-.346 1.601-5.003 9.083-30.806.623-51.887-2.047.413-7.936 1.162-13.837-2.197-5.558-3.165-9.505-9.046-11.73-17.48l-.12-.455.32-.344c.41-.44 10.155-10.745 21.929-9.478 7.146.768 13.425 5.64 18.66 14.48 9.533 16.097 12.418 32.14 8.12 45.175-3.444 10.45-11.352 18.542-22.87 23.402l-1.323.558z"/>
                        <path fill="#FFF" d="M139.978 77.46s-10.15 3.993-11.708 23.768c-1.56 19.775-2.65 39.303 13.898 50.87 0 0-3.04-12.267.729-34.92 0 0-6.907-6.162-7.04-16.51 0 0 6.766-4.853 8.32-15.105 0 0-1.458-2.362-4.199-8.103"/>
                        <path fill="#A25CBF" d="M139.589 78.625c-.906.535-2.565 1.715-4.294 3.942-2.386 3.071-5.39 8.813-6.172 18.728-1.373 17.398-2.92 37.032 11.798 48.804-.693-4.448-1.737-15.514 1.06-32.614-1.456-1.444-6.859-7.433-6.98-16.807l-.005-.444.361-.26c.065-.047 6.365-4.697 7.928-14.238-.43-.73-1.68-2.935-3.696-7.111zm3.952 75.477l-1.864-1.303c-17.372-12.145-15.719-33.127-14.26-51.639C129 81.084 139.23 76.836 139.666 76.665l.741-.292.343.719c2.682 5.615 4.142 8 4.157 8.022l.164.267-.047.31c-1.398 9.226-6.821 14.187-8.302 15.388.305 9.576 6.68 15.403 6.746 15.462l.35.314-.077.464c-3.69 22.175-.773 34.453-.743 34.574l.544 2.209z"/>
                        <path fill="#F1E4F5" d="M132.598 196.858s2.716-7.738-10.536-7.738c-13.251 0-15.061 7.738-15.061 7.738h25.597z"/>
                        <path fill="#A25CBF" d="M108.258 196.002h23.663c.11-.715.136-1.981-.702-3.15-1.35-1.882-4.516-2.877-9.157-2.877-9.524 0-12.781 4.048-13.804 6.027zm24.946 1.71h-27.281l.245-1.05c.08-.342 2.123-8.397 15.894-8.397 5.31 0 8.864 1.217 10.565 3.616 1.735 2.447.817 5.146.777 5.26l-.2.572z"/>
                        <path fill="#F1E4F5" d="M155.568 196.858s10.283-15.474 23.339-2.407c.247.247.545.437.894.44 2.07.016 9.47.635 9.742 8.563.009.237-.184.437-.421.43-2.433-.055-17.04.025-17.04.025l-.893-7.051h-15.621z"/>
                        <path fill="#A25CBF" d="M157.317 196.002h14.625l.893 7.048c2.873-.015 12.87-.064 15.828-.028-.509-6.68-6.889-7.26-8.869-7.277-.535-.003-1.038-.236-1.491-.689-3.645-3.648-7.38-5.31-11.115-4.943-4.62.456-8.198 3.931-9.87 5.89zm14.012 8.766l-.893-7.055h-16.463l.883-1.33c.197-.294 4.896-7.248 12.153-7.97 4.275-.425 8.476 1.403 12.502 5.434.118.117.23.188.296.188 4.966.04 10.355 2.528 10.59 9.39.013.347-.12.69-.366.939-.245.247-.623.38-.928.376-2.396-.056-16.87.023-17.016.024l-.758.004z"/>
                        <path fill="#A25CBF" d="M180.421 195.479l-1.241-1.177c.15-.158 14.728-16.072 1.09-42.494l1.52-.784c7.413 14.36 6.668 25.657 4.739 32.604-2.104 7.572-5.946 11.68-6.108 11.851M131.358 185.218c-2.14-.764-4.706-1.14-7.708-1.109l-.011-1.282c3.099-.03 5.867.367 8.15 1.182l-.431 1.209zM140.046 196.638l-1.273-.159c.006-.052.586-5.193-3.23-8.782l.878-.933c4.304 4.045 3.655 9.638 3.625 9.874"/>
                        <path fill="#A25CBF" d="M193.535 196.868c-2.282-4.13-5.992-5.801-11.045-4.97l-.208-1.265c7.015-1.163 10.605 2.413 12.374 5.614l-1.121.621zM195.57 203.94c0-.014-.078-1.49-.587-3.392l1.24-.33c.545 2.042.625 3.595.628 3.66l-1.28.062z"/>
                        <path fill="#FFF" d="M162.62 158.712c0 1.217-.986 2.204-2.204 2.204-1.217 0-2.203-.987-2.203-2.204 0-1.216.986-2.203 2.203-2.203 1.218 0 2.203.987 2.203 2.203"/>
                        <path fill="#A25CBF" d="M160.416 157.15c-.862 0-1.562.701-1.562 1.562 0 .861.7 1.562 1.562 1.562.862 0 1.562-.7 1.562-1.562 0-.86-.7-1.562-1.562-1.562m0 4.407c-1.57 0-2.845-1.276-2.845-2.845 0-1.568 1.276-2.845 2.845-2.845 1.569 0 2.844 1.277 2.844 2.845 0 1.57-1.275 2.845-2.844 2.845"/>
                        <path fill="#FFF" d="M162.62 174.65c0 1.217-.986 2.203-2.204 2.203-1.217 0-2.203-.986-2.203-2.203 0-1.217.986-2.203 2.203-2.203 1.218 0 2.203.986 2.203 2.203"/>
                        <path fill="#A25CBF" d="M160.416 173.088c-.862 0-1.562.7-1.562 1.562 0 .86.7 1.562 1.562 1.562.862 0 1.562-.701 1.562-1.562 0-.861-.7-1.562-1.562-1.562m0 4.407c-1.57 0-2.845-1.276-2.845-2.845 0-1.568 1.276-2.845 2.845-2.845 1.569 0 2.844 1.277 2.844 2.845 0 1.569-1.275 2.845-2.844 2.845"/>
                        <path fill="#FFF" d="M172.082 196.858L94.518 196.858 94.518 203.909 172.082 203.909 182.386 203.909 182.386 199.649z"/>
                        <path fill="#A25CBF" d="M95.373 203.054h86.158v-2.75l-9.562-2.591H95.373v5.34zm87.868 1.71H93.663v-8.761l78.643.03 10.935 2.961v5.77z"/>
                        <path fill="#FFF" d="M172.082 196.858L172.082 203.909"/>
                        <mask id="0c63vycnkb" fill="#fff">
                            <use xlink:href="#8dninjs78a"/>
                        </mask>
                        <path fill="#A25CBF" d="M171.227 203.909L172.937 203.909 172.937 196.858 171.227 196.858z" mask="url(#0c63vycnkb)"/>
                        <path fill="#E1C2EF" d="M149.807 38.323L151.209 51.662 190.004 19.66z" mask="url(#0c63vycnkb)"/>
                        <path fill="#A25CBF" d="M150.72 38.841l1.172 11.148 32.423-26.746-33.594 15.598zm-.195 14.493l-1.633-15.529 40.751-18.92.905 1.434-40.023 33.015z" mask="url(#0c63vycnkb)"/>
                        <path fill="#FFF" d="M155.037 42.786L151.259 51.618" mask="url(#0c63vycnkb)"/>
                        <path fill="#A25CBF" d="M152.044 51.954L150.473 51.281 154.251 42.45 155.823 43.122z" mask="url(#0c63vycnkb)"/>
                        <path fill="#FFF" d="M141.28 31.367l48.723-11.707-22.267 33.685-12.692-10.468c-.03-.023-.027-.067.004-.087l33.61-22.171-38.851 17.705-8.526-6.957z" mask="url(#0c63vycnkb)"/>
                        <path fill="#A25CBF" d="M143.158 31.796l6.777 5.529 33.227-15.142-40.004 9.613zm13.265 11.111l11.123 9.174 19.356-29.28-30.479 20.106zm11.503 11.702l-13.758-11.345.002-.475c.014-.286.165-.552.404-.71l24.454-16.133-29.35 13.375-10.275-8.382 52.51-12.617-23.987 36.287zM83.517 29.822L115.06 29.822 115.06 28.112 83.517 28.112z" mask="url(#0c63vycnkb)"/>
                        <path fill="#A25CBF" d="M91.614 38.273l-8.701-8.701c-.334-.335-.334-.876 0-1.21l8.701-8.7 1.21 1.208-8.098 8.097 8.097 8.097-1.209 1.21zM88.956 48.313L120.499 48.313 120.499 46.603 88.956 46.603z" mask="url(#0c63vycnkb)"/>
                        <path fill="#A25CBF" d="M112.402 56.764l-1.21-1.21 8.098-8.096-8.097-8.097 1.209-1.21 8.701 8.702c.334.334.334.875 0 1.21l-8.701 8.7z" mask="url(#0c63vycnkb)"/>
                        <path fill="#FFF" d="M21.063 61.369L56.276 61.369 56.276 15.591 21.063 15.591z" mask="url(#0c63vycnkb)"/>
                        <path fill="#E1C2EF" d="M62.145 51.979c0 5.834-4.729 10.564-10.564 10.564-5.834 0-10.563-4.73-10.563-10.564 0-5.835 4.729-10.564 10.563-10.564 5.835 0 10.564 4.73 10.564 10.564" mask="url(#0c63vycnkb)"/>
                        <path fill="#A25CBF" d="M51.58 42.27c-5.352 0-9.707 4.355-9.707 9.709 0 5.354 4.355 9.708 9.708 9.708 5.354 0 9.709-4.354 9.709-9.708s-4.355-9.71-9.71-9.71m0 21.128c-6.295 0-11.417-5.122-11.417-11.418 0-6.297 5.122-11.42 11.418-11.42C57.877 40.56 63 45.683 63 51.98c0 6.296-5.123 11.418-11.42 11.418M26.932 27.011L50.408 27.011 50.408 25.301 26.932 25.301zM26.932 34.054L50.408 34.054 50.408 32.344 26.932 32.344zM26.932 41.097L42.191 41.097 42.191 39.387 26.932 39.387zM26.933 48.139L37.496 48.139 37.496 46.429 26.933 46.429z" mask="url(#0c63vycnkb)"/>
                        <path fill="#A25CBF" d="M39.844 62.224h-18.78c-.474 0-.856-.383-.856-.855V15.591c0-.472.382-.855.855-.855h35.213c.472 0 .855.383.855.855v22.303h-1.71V16.446H21.918v44.068h17.926v1.71z" mask="url(#0c63vycnkb)"/>
                        <path fill="#A25CBF" d="M50.268 56.286c-.22 0-.438-.084-.605-.25l-3.851-3.85 1.209-1.21 3.247 3.246 6.133-6.134 1.21 1.209-6.739 6.738c-.167.167-.386.25-.604.25" mask="url(#0c63vycnkb)"/>
                        <path fill="#F1E4F5" d="M98.593 171.003h8.377c1.985 0 3.594-1.609 3.594-3.593v-59.4c0-1.985-1.61-3.593-3.594-3.593h-8.377" mask="url(#0c63vycnkb)"/>
                        <path fill="#A25CBF" d="M106.97 171.858h-8.377v-1.71h8.377c1.511 0 2.739-1.228 2.739-2.738v-59.4c0-1.51-1.228-2.738-2.739-2.738h-8.377v-1.71h8.377c2.453 0 4.449 1.995 4.449 4.448v59.4c0 2.453-1.996 4.448-4.449 4.448" mask="url(#0c63vycnkb)"/>
                        <path fill="#FFF" d="M101.774 171.003H4.292c-1.898 0-3.437-1.54-3.437-3.438v-59.71c0-1.9 1.54-3.438 3.437-3.438h97.482c1.9 0 3.438 1.539 3.438 3.438v59.71c0 1.898-1.538 3.438-3.438 3.438" mask="url(#0c63vycnkb)"/>
                        <path fill="#A25CBF" d="M4.293 105.271c-1.424 0-2.583 1.159-2.583 2.583v59.71c0 1.425 1.159 2.584 2.583 2.584h97.481c1.425 0 2.583-1.159 2.583-2.583v-59.71c0-1.425-1.158-2.584-2.583-2.584H4.293zm97.481 66.587H4.293c-2.368 0-4.293-1.926-4.293-4.293v-59.71c0-2.368 1.925-4.294 4.293-4.294h97.481c2.367 0 4.294 1.926 4.294 4.293v59.71c0 2.368-1.927 4.294-4.294 4.294z" mask="url(#0c63vycnkb)"/>
                        <path fill="#F1E4F5" d="M80.56 203.909L28.327 203.909 28.327 199.388 34.032 199.388 34.032 130.36 59.192 130.36 59.192 199.388 80.56 199.388z" mask="url(#0c63vycnkb)"/>
                        <path fill="#A25CBF" d="M29.182 203.054h50.523v-2.81H58.337v-69.029h-23.45v69.028h-5.705v2.81zm52.233 1.71H27.472v-6.23h5.705v-69.029h26.87v69.028h21.368v6.231z" mask="url(#0c63vycnkb)"/>
                        <path fill="#FFF" d="M52.041 146.713c0 2.999-2.43 5.429-5.43 5.429-2.997 0-5.428-2.43-5.428-5.429 0-2.998 2.43-5.43 5.429-5.43 2.998 0 5.429 2.432 5.429 5.43" mask="url(#0c63vycnkb)"/>
                        <path fill="#A25CBF" d="M46.612 142.14c-2.522 0-4.574 2.051-4.574 4.574 0 2.521 2.052 4.573 4.574 4.573s4.574-2.052 4.574-4.573c0-2.523-2.052-4.575-4.574-4.575m0 10.858c-3.465 0-6.284-2.819-6.284-6.283 0-3.466 2.819-6.285 6.284-6.285s6.284 2.82 6.284 6.285c0 3.464-2.819 6.283-6.284 6.283" mask="url(#0c63vycnkb)"/>
                        <path fill="#FFF" d="M84.175 162.287L84.175 166.4" mask="url(#0c63vycnkb)"/>
                        <path fill="#A25CBF" d="M83.533 166.4L84.816 166.4 84.816 162.286 83.533 162.286z" mask="url(#0c63vycnkb)"/>
                        <path fill="#FFF" d="M87.504 162.287L87.504 166.4" mask="url(#0c63vycnkb)"/>
                        <path fill="#A25CBF" d="M86.863 166.4L88.146 166.4 88.146 162.286 86.863 162.286zM199.022 204.764L219 204.764 219 203.054 199.022 203.054z" mask="url(#0c63vycnkb)"/>
                        <path fill="#F1E4F5" d="M46.612 86.951L43.997 80.915 41.384 74.878 46.612 74.878 51.84 74.878 49.226 80.915z" mask="url(#0c63vycnkb)"/>
                    </g>
                </g>
            </g>
        </g>
    </g>
</svg>
