<svg xmlns="http://www.w3.org/2000/svg" xmlns:xlink="http://www.w3.org/1999/xlink" width="219" height="215" viewBox="0 0 219 215">
    <defs>
        <path id="msjy5ctbra" d="M0 214.833L219 214.833 219 0 0 0z"/>
    </defs>
    <g fill="none" fill-rule="evenodd">
        <g>
            <g>
                <g>
                    <g transform="translate(-669 -165) translate(-2 88) translate(64 33.584) translate(607 43.416)">
                        <path fill="#F1E4F5" d="M101.384 42.267H52.707c-5.963 0-10.796-4.833-10.796-10.795s4.833-10.796 10.796-10.796h48.677c5.961 0 10.794 4.834 10.794 10.796s-4.833 10.795-10.794 10.795"/>
                        <path fill="#F1E4F5" d="M117.255 42.267H81c-10.935 0-19.8-8.865-19.8-19.8 0-10.936 8.865-19.8 19.8-19.8h36.254c10.935 0 19.8 8.864 19.8 19.8 0 10.935-8.865 19.8-19.8 19.8M132.234 200.46H91.78c-1.498 0-2.723-1.225-2.723-2.723v-3.35c0-1.499 1.225-2.725 2.723-2.725h40.455c1.5 0 2.725 1.226 2.725 2.725v3.35c0 1.498-1.226 2.724-2.725 2.724"/>
                        <mask id="5i8ffrowgb" fill="#fff">
                            <use xlink:href="#msjy5ctbra"/>
                        </mask>
                        <path fill="#F1E4F5" d="M22.112 196.982L201.902 196.982 201.902 98.586 22.112 98.586z" mask="url(#5i8ffrowgb)"/>
                        <path fill="#A25CBF" d="M202.679 196.982h-1.553V94.122c0-2.478-2.016-4.492-4.493-4.492H27.382c-2.477 0-4.493 2.014-4.493 4.492v102.86h-1.553V94.122c0-3.333 2.712-6.045 6.046-6.045h169.25c3.334 0 6.047 2.712 6.047 6.045v102.86z" mask="url(#5i8ffrowgb)"/>
                        <path fill="#A25CBF" d="M22.112 99.363L201.902 99.363 201.902 97.81 22.112 97.81z" mask="url(#5i8ffrowgb)"/>
                        <path fill="#FFF" d="M134.723 196.982c-.6 1.916-2.368 3.315-4.482 3.315H93.774c-2.115 0-3.882-1.399-4.483-3.315h-83.5v6.673c0 2.771 2.246 5.018 5.018 5.018h202.396c2.772 0 5.018-2.247 5.018-5.018v-6.673h-83.5z" mask="url(#5i8ffrowgb)"/>
                        <path fill="#A25CBF" d="M6.567 197.758v5.897c0 2.339 1.902 4.242 4.242 4.242h202.396c2.34 0 4.242-1.903 4.242-4.242v-5.897h-82.185c-.863 2.005-2.815 3.316-5.021 3.316H93.774c-2.207 0-4.16-1.31-5.022-3.316H6.567zm206.638 11.692H10.809c-3.196 0-5.795-2.6-5.795-5.795v-7.45H89.86l.17.545c.52 1.657 2.024 2.77 3.743 2.77h36.467c1.718 0 3.222-1.113 3.742-2.77l.17-.545H219v7.45c0 3.195-2.6 5.795-5.795 5.795z" mask="url(#5i8ffrowgb)"/>
                        <path fill="#FFF" d="M153.904 182.295H70.11c-.913 0-1.652-.74-1.652-1.652v-65.718c0-.912.74-1.652 1.652-1.652h83.794c.913 0 1.652.74 1.652 1.652v65.718c0 .912-.739 1.652-1.652 1.652" mask="url(#5i8ffrowgb)"/>
                        <path fill="#A25CBF" d="M179.436 84.762L180.989 84.762 180.989.776 179.436.776zM161.674 84.606L163.227 84.606 163.227.776 161.674.776z" mask="url(#5i8ffrowgb)"/>
                        <path fill="#A25CBF" d="M179.663 36.849L161.901 19.087 162.999 17.989 180.761 35.751z" mask="url(#5i8ffrowgb)"/>
                        <path fill="#A25CBF" d="M162.999 19.088L161.901 17.99 179.663 0.228 180.761 1.326z" mask="url(#5i8ffrowgb)"/>
                        <path fill="#A25CBF" d="M161.963 19.143L144.201 4.834 145.175 3.624 162.937 17.934z" mask="url(#5i8ffrowgb)"/>
                        <path fill="#A25CBF" d="M127.413 19.143L126.439 17.934 144.201 3.624 145.175 4.834z" mask="url(#5i8ffrowgb)"/>
                        <path fill="#A25CBF" d="M126.627 19.255L108.865 11.849 109.463 10.417 127.225 17.822zM180.559 19.233L179.864 17.844 197.626 8.963 198.321 10.352zM162.999 54.851L161.901 53.753 179.663 35.991 180.761 37.089z" mask="url(#5i8ffrowgb)"/>
                        <path fill="#A25CBF" d="M179.663 72.613L161.901 54.851 162.999 53.753 180.761 71.515z" mask="url(#5i8ffrowgb)"/>
                        <path fill="#A25CBF" d="M169.079 84.534L167.981 83.436 179.663 71.754 180.761 72.852zM197.973 19.315H190v-1.553h7.197v-7.624l-17.168-8.585h-17.504l-66.534 12.93v3.28h84.221v1.552H95.214c-.43 0-.776-.348-.776-.776v-4.695c0-.371.263-.691.629-.762L162.302.015c.049-.01.098-.015.148-.015h17.762c.12 0 .24.028.347.082l17.761 8.881c.264.131.43.4.43.694v8.882c0 .428-.347.776-.777.776M109.096 113.188L110.649 113.188 110.649 26.369 109.096 26.369zM114.108 113.188L115.661 113.188 115.661 26.369 114.108 26.369z" mask="url(#5i8ffrowgb)"/>
                        <path fill="#F1E4F5" d="M107.738 26.369L117.019 26.369 117.019 18.539 107.738 18.539z" mask="url(#5i8ffrowgb)"/>
                        <path fill="#A25CBF" d="M108.515 25.593h7.727v-6.278h-7.727v6.278zm8.504 1.553h-9.28c-.43 0-.777-.348-.777-.777v-7.83c0-.429.347-.777.776-.777h9.28c.43 0 .777.348.777.777v7.83c0 .43-.347.777-.776.777z" mask="url(#5i8ffrowgb)"/>
                        <path fill="#F1E4F5" d="M117.019 121.019L114.884 121.701 112.378 122.503 107.738 121.019 107.738 113.188 117.019 113.188z" mask="url(#5i8ffrowgb)"/>
                        <path fill="#A25CBF" d="M108.515 120.452l3.863 1.236 3.864-1.236v-6.487h-7.727v6.487zm3.863 2.828c-.08 0-.16-.012-.236-.036l-4.64-1.485c-.322-.103-.54-.402-.54-.74v-7.83c0-.43.347-.777.776-.777h9.28c.43 0 .777.347.777.776v7.83c0 .339-.218.638-.54.74l-4.64 1.486c-.077.024-.157.036-.237.036z" mask="url(#5i8ffrowgb)"/>
                        <path fill="#A25CBF" d="M109.687 129.479c-1.913 0-3.468-1.556-3.468-3.468h1.553c0 1.056.86 1.915 1.915 1.915 1.055 0 1.915-.859 1.915-1.915v-3.507h1.553v3.507c0 1.912-1.556 3.468-3.468 3.468" mask="url(#5i8ffrowgb)"/>
                        <path fill="#A25CBF" d="M80.745 174.172c-1.263 0-2.331-.98-2.42-2.259l-2.898-41.405c-.091-1.336.92-2.499 2.255-2.592l25.953-1.815.108 1.55-25.954 1.814c-.481.034-.845.453-.812.935l2.896 41.405c.034.481.465.848.934.812l68.822-4.813c.48-.033.846-.452.811-.934l-2.895-41.405c-.034-.48-.451-.849-.933-.812l-30.666 2.144-.108-1.549 30.665-2.145c1.336-.097 2.498.918 2.59 2.254l2.897 41.405c.093 1.336-.918 2.498-2.252 2.591l-68.823 4.813c-.057.005-.115.006-.17.006" mask="url(#5i8ffrowgb)"/>
                        <path fill="#B580D1" d="M128.568 163.512l-27.503 1.924c-2.521.176-4.729-1.743-4.904-4.264-.177-2.521 1.741-4.728 4.263-4.904l27.504-1.923c2.52-.177 4.728 1.742 4.903 4.263.177 2.521-1.742 4.728-4.263 4.904" mask="url(#5i8ffrowgb)"/>
                        <path fill="#F1E4F5" d="M141.947 148.065L85.667 152 85.311 146.907 141.59 142.972zM141.341 139.406L115.095 141.242 114.738 136.149 140.985 134.313zM111.307 141.507L85.061 143.341 84.705 138.249 110.952 136.413z" mask="url(#5i8ffrowgb)"/>
                        <path fill="#E1C2EF" d="M9.282 191.094s-.998 2.065.927 1.644c.542-.362 1.144-.664 1.144-.664s1.264 1.266 3.973.243c-.06-.12.4-4.16-.702-6.566 0 0-1.043 1.569-3.451 2.592 0-.06-1.194 2.19-1.89 2.75M51.204 149.817s3.49-5.614 5.718-3.53c0 0 5.03-3.992 5.887-2.398.434.751-2.944 3.598-2.944 3.598s-.173 5.04-2.642 5.761c-2.467.723-3.912.843-3.912.843s-.603-3.13-2.107-4.274M14.243 157.161s8.127-.06 12.4-4.756c0-.06-.136 5.111-.136 5.111l-1.549 2.053-7.064 2.744s-3.17-2.564-3.651-5.152" mask="url(#5i8ffrowgb)"/>
                        <path fill="#F1E4F5" d="M11.012 166.833s6.582-5.94 21.67-9.631c0 0-2.727 5.939 3.291 10.193-.2-.067 3.532 14.448.081 24.32 0 0-13.083 7.464-20.066 2.166 0 0 .32-8.588-2.97-16.212 0 .08 2.007-5.217-2.006-10.836" mask="url(#5i8ffrowgb)"/>
                        <path fill="#FFF" d="M9.728 167.957s.802-1.044 1.525 0c.723 1.043 4.334 6.822.08 10.916 0-.08 4.976 4.815 2.327 8.026 0-.08-1.283 1.765-2.888.802-1.606-.963-8.83-4.907-9.993-8.272 0 0 3.892-6.817 8.949-11.472M32.683 157.201s16.523-4.885 18.135-7.098c0 0 3.46 2.417 2.616 5.56l-16.979 11.17s-.481.883-1.524-.08c-1.044-.963-4.575-5.297-2.248-9.552" mask="url(#5i8ffrowgb)"/>
                        <path fill="#B580D1" d="M15.988 193.882s5.86 5.537 20.066-2.168c0-.08-2.648 17.82-4.815 21.35-.081 0-7.385-1.043-16.535.482-.08 0 .803-18.942.803-18.942l.481-.722z" mask="url(#5i8ffrowgb)"/>
                        <path fill="#FFF" d="M21.6 143.562s-12.114 3.526-8.34 12.917c0 0 3.61 2.729 11.637-2.568 2.97-2.168 5.264-4.42 4.88-6.424-.385-2.004-3.756.244-3.756.244l-1.204-.402s-1.377-3.039-3.217-3.767" mask="url(#5i8ffrowgb)"/>
                        <path fill="#A25CBF" d="M31.717 214.11l-1.483-.464c9.977-32.032 5.067-45.41 4.85-45.96-.014-.025-.025-.053-.036-.08-.137-.358.006-.76.338-.95 5.3-3.053 12.347-7.982 15.733-10.35.718-.502 1.205-.842 1.55-1.066.006-3.176-2.13-4.403-2.225-4.456l.74-1.365c.134.073 3.267 1.812 3.025 6.286-.015.27-.168.511-.405.64l-.045.022c-.191.122-.917.63-1.75 1.212-3.29 2.3-10.013 7.003-15.298 10.102.52 1.563 1.267 5.058 1.326 10.546.071 6.883-.966 18.695-6.32 35.882M17.423 162.93c-.298-.227-7.289-5.646-5.06-12.1 2.186-6.326 8.779-7.957 9.058-8.023.186-.044.384-.017.55.073.162.089 3.952 2.204 4.542 6.686l-1.54.203c-.404-3.069-2.713-4.848-3.49-5.366-1.241.384-5.996 2.141-7.652 6.935-1.86 5.388 4.47 10.31 4.534 10.358l-.942 1.235z" mask="url(#5i8ffrowgb)"/>
                        <path fill="#A25CBF" d="M14.708 157.99c-.295 0-.59-.009-.89-.025l.085-1.55c6.417.346 11.081-3.498 12.787-5.17 1.657-1.626 2.284-2.845 2.4-3.294-.557-.212-2.053.244-3.19.87l-.75-1.36c.613-.338 3.746-1.955 5.176-.523.432.432.451 1.099.057 1.982-1.233 2.761-7.413 9.07-15.675 9.07" mask="url(#5i8ffrowgb)"/>
                        <path fill="#A25CBF" d="M25.084 160.186l-1.524-.29c.126-.755 1.442-2.206 2.226-2.833.21-1.78-.151-4.087-.155-4.112l1.533-.245c.019.117.452 2.874.108 4.938-.046.278-.239.509-.504.603-.425.327-1.556 1.56-1.684 1.939z" mask="url(#5i8ffrowgb)"/>
                        <path fill="#A25CBF" d="M1.592 179.535c.22.54 1.598 2.81 10.043 7.649.785-.33 1.552-.92 2.203-1.695-.18-3.84-2.391-5.293-3.053-5.502-.2-.006-.398-.089-.546-.247-.285-.306-.276-.784.02-1.08l.058-.052c1.461-1.282 2.242-2.757 2.317-4.38.119-2.53-1.453-4.832-2.21-5.788-5.462 4.814-8.262 9.976-8.832 11.095zm9.98 9.283c-.15 0-.293-.043-.413-.118C.734 182.77-.111 180.164.01 179.32c.01-.076.033-.15.065-.218.277-.596 6.98-14.65 23.04-19.601 14.71-4.534 25.338-7.81 27.995-10.786.365-.41.694-.787.992-1.131 1.809-2.082 2.945-3.394 4.86-2.21.733-.446 2.401-1.503 3.901-2.464.042-.027.086-.05.131-.068.827-.332 1.958-.264 2.49.663.739 1.295-.02 1.955-2.855 4.354-.071 1.24-.536 5.168-3.578 6.146l-3.053.981-.475-1.478 3.052-.982c2.474-.795 2.514-4.997 2.514-5.039 0-.228.1-.445.275-.592l.182-.154c1.377-1.166 2.473-2.093 2.613-2.422l-.025-.044c-.056-.097-.347-.055-.511-.007-4.365 2.797-4.41 2.797-4.7 2.797-.171 0-.337-.056-.473-.16-.937-.718-1.084-.712-3.175 1.698-.303.348-.636.731-1.007 1.147-2.814 3.151-11.774 6.02-28.695 11.235-4.828 1.488-8.793 3.873-11.963 6.45.884 1.104 2.72 3.784 2.576 6.866-.08 1.72-.76 3.288-2.023 4.672 1.149.753 3.153 2.65 3.237 6.764.004.177-.054.352-.164.492-.93 1.198-2.113 2.09-3.331 2.515-.102.048-.215.075-.334.075z" mask="url(#5i8ffrowgb)"/>
                        <path fill="#A25CBF" d="M15.395 214.833l-1.543-.166C16.929 185.91 12.05 177.52 12 177.44l1.318-.821c.215.344 5.23 8.743 2.076 38.215" mask="url(#5i8ffrowgb)"/>
                        <path fill="#A25CBF" d="M22.835 196.582c-5.163 0-7.627-2.49-7.793-2.664l1.122-1.073c.245.25 6.142 6.05 19.858-2.305l.808 1.326c-5.935 3.615-10.562 4.716-13.995 4.716M22.476 213.63l-1.508-.365c1.578-6.529 1.292-10.29 1.289-10.327l1.546-.13c.014.16.32 4.018-1.327 10.823M35.396 168.006c-5.319-2.954-4.254-10.193-4.206-10.5l1.535.238c-.01.065-.94 6.48 3.425 8.905l-.754 1.357zM9.739 193.549c-.335 0-.665-.092-.955-.333-.817-.681-.65-1.801-.148-2.554l2.315-3.087 1.241.932-2.289 3.052c-.086.14-.157.388-.132.46.108-.008.708-.254 1.11-.56.3-.23.723-.21 1.002.048.116.102 1.254 1.024 3.047-.278l.913 1.255c-1.883 1.37-3.553 1.062-4.498.532-.415.25-1.018.533-1.606.533" mask="url(#5i8ffrowgb)"/>
                    </g>
                </g>
            </g>
        </g>
    </g>
</svg>
