<svg xmlns="http://www.w3.org/2000/svg" xmlns:xlink="http://www.w3.org/1999/xlink" width="272" height="205" viewBox="0 0 272 205">
    <defs>
        <path id="s966kf0q4a" d="M0 205L270 205 270 0 0 0z"/>
    </defs>
    <g fill="none" fill-rule="evenodd">
        <g>
            <g>
                <path fill="#F1E4F5" d="M232.108 172L270.108 172 270.108 124 232.108 124z" transform="translate(-612 -163) translate(612.892 163)"/>
                <g transform="translate(-612 -163) translate(612.892 163) translate(.108)">
                    <path fill="#F1E4F5" d="M255.746 151.845l-2.201-.612c-1.475-.41-2.342-1.956-1.938-3.452l10.526-38.887c.572-2.111 2.724-3.353 4.807-2.773 2.083.579 3.308 2.761 2.735 4.873L259.15 149.88c-.404 1.496-1.928 2.375-3.404 1.965M142.447 162.084H97.472c-1.779 0-3.235-1.456-3.235-3.235v-3.388c0-1.778 1.456-3.233 3.235-3.233h44.975c1.78 0 3.235 1.455 3.235 3.233v3.388c0 1.78-1.455 3.235-3.235 3.235"/>
                    <mask id="mlail1hu5b" fill="#fff">
                        <use xlink:href="#s966kf0q4a"/>
                    </mask>
                    <path fill="#F1E4F5" d="M19.213 158.186L220.706 158.186 220.706 47.965 19.213 47.965z" mask="url(#mlail1hu5b)"/>
                    <path fill="#A25CBF" d="M221.628 158.186h-1.844V42.966c0-2.746-2.237-4.982-4.984-4.982H25.12c-2.747 0-4.984 2.236-4.984 4.981v115.221h-1.844V42.966c0-3.763 3.063-6.825 6.828-6.825H214.8c3.765 0 6.828 3.062 6.828 6.824v115.221z" mask="url(#mlail1hu5b)"/>
                    <path fill="#A25CBF" d="M19.213 48.887L220.706 48.887 220.706 47.044 19.213 47.044z" mask="url(#mlail1hu5b)"/>
                    <path fill="#FFF" d="M145.418 158.186c-.672 2.146-2.654 3.714-5.023 3.714h-40.87c-2.37 0-4.35-1.568-5.023-3.714H.922v7.474c0 3.106 2.518 5.622 5.624 5.622h226.828c3.106 0 5.624-2.516 5.624-5.622v-7.474h-93.58z" mask="url(#mlail1hu5b)"/>
                    <path fill="#A25CBF" d="M1.844 159.108v6.552c0 2.592 2.11 4.7 4.702 4.7h226.828c2.593 0 4.702-2.108 4.702-4.7v-6.552h-92.02c-.981 2.247-3.179 3.713-5.661 3.713h-40.87c-2.483 0-4.68-1.466-5.662-3.713H1.844zm231.53 13.096H6.546c-3.609 0-6.546-2.936-6.546-6.544v-8.396h95.18l.202.647c.575 1.834 2.24 3.067 4.143 3.067h40.87c1.903 0 3.567-1.233 4.143-3.067l.203-.647h95.179v8.396c0 3.608-2.937 6.544-6.546 6.544zM71.009 199.586L72.854 199.586 72.854 185.951 71.009 185.951z" mask="url(#mlail1hu5b)"/>
                    <path fill="#A25CBF" d="M65.24 193.823L78.889 193.823 78.889 191.98 65.24 191.98zM132.809 195.987L134.653 195.987 134.653 187.376 132.809 187.376z" mask="url(#mlail1hu5b)"/>
                    <path fill="#A25CBF" d="M129.532 192.688L137.931 192.688 137.931 190.844 129.532 190.844zM44.424 22.874L46.269 22.874 46.269 14.263 44.424 14.263z" mask="url(#mlail1hu5b)"/>
                    <path fill="#A25CBF" d="M41.148 19.575L49.547 19.575 49.547 17.731 41.148 17.731zM156.926 15.238L159.693 15.238 159.693 12.473 156.926 12.473zM59.538 2.765L62.304 2.765 62.304 0 59.538 0zM178.025 16.778L179.87 16.778 179.87 3.143 178.025 3.143z" mask="url(#mlail1hu5b)"/>
                    <path fill="#A25CBF" d="M172.256 11.015L185.905 11.015 185.905 9.172 172.256 9.172zM212.618 19.952L215.385 19.952 215.385 17.186 212.618 17.186zM93.542 205L96.309 205 96.309 202.235 93.542 202.235zM19.213 60.552L220.706 60.552 220.706 47.966 19.213 47.966z" mask="url(#mlail1hu5b)"/>
                    <path fill="#FFF" d="M42.92 79.999L77.29 79.999 77.29 65.953 42.92 65.953zM82.823 79.999L117.193 79.999 117.193 65.953 82.823 65.953zM122.726 79.999L157.096 79.999 157.096 65.953 122.726 65.953zM162.629 79.999L196.999 79.999 196.999 65.953 162.629 65.953z" mask="url(#mlail1hu5b)"/>
                    <path fill="#A25CBF" d="M42.921 79.999L46.363 79.999 46.363 65.953 42.921 65.953z" mask="url(#mlail1hu5b)"/>
                    <path fill="#FFF" d="M42.921 115.629L196.999 115.629 196.999 85.529 42.921 85.529z" mask="url(#mlail1hu5b)"/>
                    <path fill="#E1C2EF" d="M42.921 115.629L46.363 115.629 46.363 85.529 42.921 85.529z" mask="url(#mlail1hu5b)"/>
                    <path fill="#FFF" d="M42.921 151.26L196.999 151.26 196.999 121.16 42.921 121.16z" mask="url(#mlail1hu5b)"/>
                    <path fill="#A25CBF" d="M42.921 151.26L46.363 151.26 46.363 121.16 42.921 121.16z" mask="url(#mlail1hu5b)"/>
                    <path fill="#E1C2EF" d="M82.824 79.999L86.266 79.999 86.266 65.953 82.824 65.953z" mask="url(#mlail1hu5b)"/>
                    <path fill="#B580D1" d="M122.726 79.999L126.168 79.999 126.168 65.953 122.726 65.953z" mask="url(#mlail1hu5b)"/>
                    <path fill="#E1C2EF" d="M162.63 79.999L166.071 79.999 166.071 65.953 162.63 65.953z" mask="url(#mlail1hu5b)"/>
                    <path fill="#FFF" d="M118.135 99.254L133.57 99.254 123.398 113.147 133.031 113.147 110.527 138.237 118.27 121.24 110.037 121.24z" mask="url(#mlail1hu5b)"/>
                    <path fill="#A25CBF" d="M111.36 120.32h8.343l-5.838 12.815 17.101-19.066h-9.385l10.172-13.893h-12.975l-7.419 20.143zm-.146 18.532l-1.526-.997 7.149-15.692h-8.122l8.777-23.83h17.896l-10.173 13.892h9.88l-23.881 26.627z" mask="url(#mlail1hu5b)"/>
                </g>
            </g>
        </g>
    </g>
</svg>
