<?xml version="1.0" encoding="UTF-8"?>
<svg width="8px" height="8px" viewBox="0 0 8 8" version="1.1" xmlns="http://www.w3.org/2000/svg" xmlns:xlink="http://www.w3.org/1999/xlink">
    <title>Status / In progress</title>
    <g id="Symbols" stroke="none" stroke-width="1" fill="none" fill-rule="evenodd">
        <g id="Table-/-X-/-Status-/-In-progress" fill="#008576">
            <path d="M0.314933668,2.44161624 L0.342444827,2.37818378 C0.357656392,2.34392931 0.373335041,2.30992826 0.38947269,2.27618869 C0.400747186,2.25261699 0.412237197,2.22918986 0.423948166,2.20589294 C0.437987702,2.17796541 0.452300002,2.15030905 0.466923202,2.12284336 C0.489218313,2.08095612 0.512471739,2.03910618 0.536445469,1.99772557 C0.545066076,1.98284393 0.553884382,1.96784782 0.56279724,1.95291467 C0.57790499,1.9276038 0.5932263,1.90256644 0.60881326,1.87771262 C0.62876006,1.84589895 0.649391111,1.81401275 0.670459215,1.78244309 C0.681736858,1.76554548 0.693048589,1.74887073 0.704482269,1.73228654 C0.729195339,1.69644156 0.754461098,1.66104269 0.780282757,1.62607939 C0.796728228,1.60380667 0.813663404,1.58136816 0.830827722,1.55911546 C0.848252778,1.53653062 0.865592558,1.51453608 0.883156494,1.49272969 C0.903512581,1.46745094 0.924457326,1.44208533 0.945705904,1.41698513 C0.96946257,1.38892337 0.993544904,1.36125384 1.01799745,1.33392249 C1.0348137,1.3151256 1.05186761,1.29642132 1.06909531,1.27788076 C1.0908814,1.25443739 1.11276751,1.23143829 1.13492198,1.20870193 C1.16345836,1.17941436 1.19252312,1.15048245 1.22202464,1.12199998 C1.23313412,1.11127302 1.24447219,1.10045259 1.25587343,1.08969841 C1.28883972,1.05860634 1.32217674,1.02820695 1.35602235,0.998371034 C1.37437629,0.982194239 1.39261926,0.966404498 1.41100537,0.950778091 C1.43845211,0.927447386 1.46645853,0.904287085 1.49478182,0.881504714 C1.51523746,0.865050444 1.53589517,0.848764895 1.55671584,0.832680075 C1.58173051,0.813356461 1.60688018,0.794396301 1.63225825,0.775728567 C1.66970268,0.748183363 1.70773883,0.721210247 1.74625862,0.694892968 C1.7567019,0.687758446 1.76707572,0.680742426 1.77748408,0.673773965 C1.81643736,0.647693074 1.85595975,0.622225334 1.89595147,0.597442973 C1.91479541,0.58576524 1.93379426,0.574209411 1.95289615,0.562808295 C1.9763437,0.548813608 1.99992772,0.535062724 2.02366355,0.521547777 C2.0602233,0.500728606 2.09731904,0.480376337 2.13476654,0.460600959 C2.15087501,0.452095595 2.16683266,0.443807256 2.18285277,0.435623745 C2.21805176,0.417642328 2.25361766,0.400136002 2.28947655,0.383147246 C2.32269694,0.367407029 2.35630298,0.352051944 2.39015475,0.337152376 C2.4157937,0.325865497 2.44182645,0.314734979 2.46799947,0.303874366 C2.5700348,0.2615494 2.67371869,0.223481377 2.77931158,0.189680979 C2.7946607,0.184766096 2.81040899,0.179831357 2.82619886,0.174991705 C2.86189626,0.164054209 2.89742192,0.153708781 2.93314806,0.143846532 C2.96124001,0.136089829 2.98969525,0.128571453 3.01827283,0.12136062 C3.27035586,0.0577590047 3.53187828,0.0180918255 3.80035966,0.00489530723 L4,0 L4,0 C6.209139,0 8,1.790861 8,4 C8,6.209139 6.209139,8 4,8 L4,8 C1.790861,8 -8.8817842e-16,6.209139 -8.8817842e-16,4 L0.004,3.823 L0.00489530723,3.80035966 C0.00816278481,3.73388327 0.0130530859,3.66783351 0.0195274257,3.60224916 C0.0235759474,3.56120439 0.0282861043,3.52002521 0.0336166375,3.47904086 C0.0786586987,3.13252873 0.168160528,2.79966998 0.296188686,2.48665484 L0.314933668,2.44161624 L0.314933668,2.44161624 Z M4,1 L3.999,1 L3.9989971,6.99999984 C3.99933139,6.99999995 3.99966569,7 4,7 C5.65685425,7 7,5.65685425 7,4 C7,2.34314575 5.65685425,1 4,1 Z" id="Combined-Shape"></path>
        </g>
    </g>
</svg>