<svg xmlns="http://www.w3.org/2000/svg" width="20" height="21" viewBox="0 0 20 21">
    <g fill="none" fill-rule="evenodd">
        <g fill="#005EB8">
            <g>
                <g>
                    <g>
                        <g>
                            <path d="M10.833 2.5c4.135 0 7.5 3.365 7.5 7.5s-3.365 7.5-7.5 7.5-7.5-3.365-7.5-7.5H1.667l2.5-3.333L6.667 10H5c0 3.217 2.617 5.834 5.833 5.834 3.217 0 5.834-2.617 5.834-5.834 0-3.216-2.617-5.833-5.834-5.833V2.5zm.834 3.334v.833h1.666v1.667h-2.916c-.23 0-.417.186-.417.416 0 .23.187.417.417.417h.833c1.148 0 2.083.935 2.083 2.083 0 1.007-.716 1.848-1.666 2.042v.875H10v-.833H8.333v-1.667h2.917c.23 0 .417-.187.417-.417 0-.23-.187-.416-.417-.416h-.833c-1.149 0-2.084-.935-2.084-2.084 0-1.006.717-1.847 1.667-2.041v-.875h1.667z" transform="translate(-32 -732) translate(0 611) translate(32 109.297) translate(0 12)"/>
                        </g>
                    </g>
                </g>
            </g>
        </g>
    </g>
</svg>
