<svg id="comment-resolved" xmlns="http://www.w3.org/2000/svg" width="24" height="24" viewBox="0 0 24 24">
  <g id="mark_chat_read_black_24dp">
    <rect id="Rectangle_266" data-name="Rectangle 266" width="24" height="24" fill="none"/>
    <path id="Path_513" data-name="Path 513" d="M17.34,20,13.8,16.46l1.41-1.41,2.12,2.12,4.24-4.24L23,14.34ZM12,17a6.992,6.992,0,0,1,10-6.32V4a2.006,2.006,0,0,0-2-2H4A2.006,2.006,0,0,0,2,4V22l4-4h6a4.193,4.193,0,0,1,.03-.5A4.07,4.07,0,0,1,12,17Z"/>
  </g>
  <path id="Path_511" data-name="Path 511" d="M0,0H24V24H0Z" fill="none"/>
</svg>
