<svg xmlns="http://www.w3.org/2000/svg" width="18" height="18" viewBox="0 0 18 18">
    <path data-name="Path 508" d="M0 0h18v18H0z" style="fill:none"/>
    <path data-name="Path 512" d="m7.207 12.2 1.627-1.708L10.46 12.2l.707-.742L9.54 9.75l1.627-1.708-.707-.742-1.627 1.708L7.207 7.3l-.707.742L8.127 9.75 6.5 11.458zm6.46-9.8H13V1h-1.333v1.4H6.333V1H5v1.4h-.667a1.362 1.362 0 0 0-1.326 1.4L3 13.6A1.368 1.368 0 0 0 4.333 15h9.333A1.372 1.372 0 0 0 15 13.6V3.8a1.372 1.372 0 0 0-1.333-1.4zm0 11.2H4.333V5.9h9.333z" transform="translate(0 1)" style="fill:#c81f1f"/>
</svg>
