<svg xmlns="http://www.w3.org/2000/svg" width="24" height="24" viewBox="0 0 24 24">
    <g fill="none" fill-rule="evenodd">
        <g fill="#63666A">
            <g>
                <g>
                    <path d="M10 15H7.121c.241-1.002.848-1.53 1.551-1.787-.387-.543-.72-1.128-.981-1.752-1.29.56-2.339 1.668-2.614 3.54H4v2h1.077c.429 2.921 2.74 4 4.923 4v-2c-1.157 0-2.491-.387-2.879-2H10v-2zM16 2c3.309 0 6 2.692 6 6 0 3.31-2.691 6-6 6s-6-2.69-6-6c0-3.308 2.691-6 6-6m0 14c4.411 0 8-3.588 8-8 0-4.41-3.589-8-8-8S8 3.59 8 8c0 4.412 3.589 8 8 8" transform="translate(-422 -677) translate(422 656) translate(0 21)"/>
                    <path d="M15 13h2v-1.05c1.14-.232 2-1.241 2-2.45C19 8.123 17.878 7 16.5 7h-1c-.276 0-.5-.223-.5-.5 0-.276.224-.5.5-.5H19V4h-2V3h-2v1.05c-1.14.234-2 1.243-2 2.45C13 7.878 14.122 9 15.5 9h1c.276 0 .5.225.5.5 0 .277-.224.5-.5.5H13v2h2v1zM4 7l4-4H5V2h4V0H4C3.448 0 3 .45 3 1v2H0l4 4zM20 17l-4 4h3v1h-4v2h5c.552 0 1-.448 1-1v-2h3l-4-4zM13.947 16.756C13.573 19.709 11.052 22 8 22c-3.309 0-6-2.691-6-6 0-3.053 2.292-5.574 5.244-5.947-.149-.64-.236-1.301-.24-1.985C3.061 8.563 0 11.928 0 16c0 4.41 3.59 8 8 8 4.073 0 7.438-3.062 7.931-7.004-.683-.005-1.345-.092-1.984-.241" transform="translate(-422 -677) translate(422 656) translate(0 21)"/>
                </g>
            </g>
        </g>
    </g>
</svg>
