<svg xmlns="http://www.w3.org/2000/svg" width="64" height="64" viewBox="0 0 64 64">
  <g fill="#A25CBF">
    <g transform="translate(30)">
      <path d="M17.11,33.6 C7.8,33.6 0.22,26.06 0.22,16.8 C0.22,7.54 7.79,0 17.11,0 C26.43,0 34,7.54 34,16.8 C34,26.06 26.42,33.6 17.11,33.6 Z M17.11,3.2 C9.57,3.2 3.43,9.3 3.43,16.8 C3.43,24.3 9.56,30.4 17.11,30.4 C24.65,30.4 30.78,24.3 30.78,16.8 C30.78,9.3 24.65,3.2 17.11,3.2 Z"/>
      <path d="M18.8,25.16 L12.01,25.16 L12.01,21.96 L18.8,21.96 C19.79,21.96 20.59,21.16 20.59,20.18 C20.59,19.2 19.79,18.4 18.8,18.4 L15.4,18.4 C12.64,18.4 10.39,16.17 10.39,13.42 C10.39,10.68 12.64,8.44 15.4,8.44 L22.19,8.44 L22.19,11.64 L15.4,11.64 C14.41,11.64 13.61,12.44 13.61,13.42 C13.61,14.4 14.41,15.2 15.4,15.2 L18.8,15.2 C21.56,15.2 23.81,17.43 23.81,20.18 C23.81,22.92 21.57,25.16 18.8,25.16 Z"/>
      <rect width="3.22" height="3.38" x="15.5" y="6.67"/>
      <rect width="3.22" height="3.38" x="15.5" y="23.56"/>
    </g>
    <path d="M16.89,64 C7.58,64 0,56.46 0,47.2 C0,37.94 7.58,30.4 16.89,30.4 C26.2,30.4 33.78,37.94 33.78,47.2 C33.78,56.46 26.21,64 16.89,64 Z M16.89,33.6 C9.35,33.6 3.22,39.7 3.22,47.2 C3.22,54.7 9.35,60.8 16.89,60.8 C24.43,60.8 30.56,54.7 30.56,47.2 C30.56,39.7 24.43,33.6 16.89,33.6 Z"/>
    <g transform="translate(36 36)">
      <path d="M15.97,22.58 L0.69,22.58 L0.69,19.38 L14.36,19.38 L14.36,2.4 L17.58,2.4 L17.58,20.98 C17.58,21.86 16.86,22.58 15.97,22.58 Z"/>
      <path d="M24.67,13.32 L15.97,4.67 L7.27,13.32 L5,11.06 L14.84,1.28 C15.47,0.65 16.49,0.65 17.11,1.28 L26.95,11.06 L24.67,13.32 Z"/>
    </g>
    <g transform="translate(2 5)">
      <path d="M12.62,20.6 L9.4,20.6 L9.4,2.02 C9.4,1.14 10.12,0.42 11.01,0.42 L26.64,0.42 L26.64,3.62 L12.62,3.62 L12.62,20.6 Z"/>
      <path d="M11.01,22.2 C10.58,22.2 10.17,22.03 9.87,21.73 L0.03,11.95 L2.3,9.69 L11,18.34 L19.7,9.69 L21.97,11.95 L12.13,21.73 C11.84,22.03 11.43,22.2 11.01,22.2 Z"/>
    </g>
    <g transform="translate(8 37)">
      <path d="M13.63,19.9 C8.26,19.9 3.88,15.55 3.88,10.2 C3.88,4.85 8.25,0.51 13.63,0.51 L13.63,3.71 C10.03,3.71 7.1,6.62 7.1,10.2 C7.1,13.78 10.03,16.7 13.63,16.7 L13.63,19.9 Z"/>
      <rect width="11.89" height="3.2" x=".4" y="8.6"/>
    </g>
  </g>
</svg>
