<svg xmlns="http://www.w3.org/2000/svg" xmlns:xlink="http://www.w3.org/1999/xlink" width="24" height="24" viewBox="0 0 24 24">
    <defs>
        <path id="a" d="M12 13c4.71 0 8 2.467 8 6v1H4v-1c0-3.533 3.29-6 8-6zm0 2c-3.008 0-5.243 1.192-5.841 3h11.683c-.598-1.808-2.834-3-5.842-3zm0-11c2.206 0 4 1.794 4 4s-1.794 4-4 4-4-1.794-4-4 1.794-4 4-4zm0 2c-1.103 0-2 .896-2 2 0 1.103.897 2 2 2s2-.897 2-2c0-1.104-.897-2-2-2z"/>
    </defs>
    <g fill="none" fill-rule="evenodd">
        <path fill="none" d="M0 0h24v24H0z"/>
        <mask id="b" fill="#fff">
            <use xlink:href="#a"/>
        </mask>
        <use fill="#63666A" xlink:href="#a"/>
        <path fill="#63666A" d="M0 0h24v24H0z" mask="url(#b)"/>
    </g>
</svg>
