<svg xmlns="http://www.w3.org/2000/svg" width="24" height="24" viewBox="0 0 24 24">
    <g fill="none" fill-rule="evenodd">
        <path fill="#EFF1F1" d="M-25-413h768v917H-25z"/>
        <path fill="#FFF" d="M-25-395h768v884H-25z"/>
        <path stroke="#63666A" stroke-linejoin="round" stroke-width="2" d="M14.828 9.171a4 4 0 1 1-5.658 5.657 4 4 0 0 1 5.658-5.657z"/>
        <path fill="#63666A" d="M17 15.586L15.586 17l-3.293-3.293 1.414-1.414z"/>
        <path stroke="#63666A" stroke-linejoin="round" stroke-width="2" d="M21 12a9 9 0 0 1-9 9 9 9 0 0 1-9-9 9 9 0 0 1 9-9 9 9 0 0 1 9 9z"/>
    </g>
</svg>
