<svg xmlns="http://www.w3.org/2000/svg" width="24" height="24" viewBox="0 0 24 24">
  <g id="Filter_8" transform="translate(141.917 6953)">
    <path id="Path_1" data-name="Path 1" d="M0,0H24V24H0Z" transform="translate(-141.917 -6953)" fill="none"/>
    <path id="Subtraction_1" data-name="Subtraction 1" d="M-193.916-6967.133h-4v-2h4v2Zm-.938-5h-7.062v-2h5.613a6.26,6.26,0,0,0,1.448,2Zm-2-5h-8.062v-2h8.525a6.232,6.232,0,0,0-.464,2Z" transform="translate(66 32.133)"/>
    <path id="Subtraction_4" data-name="Subtraction 4" d="M-451.651-6970.468a6.273,6.273,0,0,1-6.265-6.267,6.272,6.272,0,0,1,6.265-6.266,6.273,6.273,0,0,1,6.267,6.266A6.274,6.274,0,0,1-451.651-6970.468Zm-.261-8.728a1.9,1.9,0,0,0-1.158.332,1.036,1.036,0,0,0-.443.867,1.282,1.282,0,0,0,.188.675,1.882,1.882,0,0,0,.615.577,1.884,1.884,0,0,0-.729.585,1.308,1.308,0,0,0-.228.759,1.161,1.161,0,0,0,.468.987,2.12,2.12,0,0,0,1.288.349,2.019,2.019,0,0,0,1.269-.374,1.2,1.2,0,0,0,.482-.99,1.17,1.17,0,0,0-.244-.715,2.4,2.4,0,0,0-.806-.627,1.81,1.81,0,0,0,.683-.534,1.159,1.159,0,0,0,.212-.684,1.044,1.044,0,0,0-.438-.88A1.907,1.907,0,0,0-451.912-6979.2Zm-.012,4.355a.878.878,0,0,1-.561-.165.553.553,0,0,1-.205-.458c0-.341.245-.626.727-.848a2.5,2.5,0,0,1,.627.426.6.6,0,0,1,.193.43.56.56,0,0,1-.195.445A.88.88,0,0,1-451.925-6974.84Zm.012-2.373h0a1.443,1.443,0,0,1-.476-.333.575.575,0,0,1-.131-.368.455.455,0,0,1,.167-.37.659.659,0,0,1,.436-.139.68.68,0,0,1,.436.137.453.453,0,0,1,.172.372.6.6,0,0,1-.133.38,1.369,1.369,0,0,1-.469.321Z" transform="translate(327 32.133)"/>
  </g>
</svg>