<svg xmlns="http://www.w3.org/2000/svg" width="24" height="24" viewBox="0 0 24 24">
  <g id="Filter_9" transform="translate(141.917 6953)">
    <path id="Path_1" data-name="Path 1" d="M0,0H24V24H0Z" transform="translate(-141.917 -6953)" fill="none"/>
    <path id="Subtraction_1" data-name="Subtraction 1" d="M-193.916-6967.133h-4v-2h4v2Zm-.938-5h-7.062v-2h5.613a6.26,6.26,0,0,0,1.448,2Zm-2-5h-8.062v-2h8.525a6.232,6.232,0,0,0-.464,2Z" transform="translate(66 32.133)"/>
    <path id="Subtraction_3" data-name="Subtraction 3" d="M-487.651-6970.468a6.273,6.273,0,0,1-6.265-6.267,6.272,6.272,0,0,1,6.265-6.266,6.273,6.273,0,0,1,6.267,6.266A6.274,6.274,0,0,1-487.651-6970.468Zm-1.689-4.493h0v.848a3.579,3.579,0,0,0,.673.047,2.353,2.353,0,0,0,1.884-.728,3.34,3.34,0,0,0,.622-2.2,2.858,2.858,0,0,0-.223-1.178,1.67,1.67,0,0,0-.638-.753,1.787,1.787,0,0,0-.967-.259,1.658,1.658,0,0,0-1.243.466,1.741,1.741,0,0,0-.457,1.271,1.692,1.692,0,0,0,.377,1.164,1.321,1.321,0,0,0,1.029.419,1.425,1.425,0,0,0,.648-.132,1.171,1.171,0,0,0,.459-.45h.04a2.155,2.155,0,0,1-.209.918,1.1,1.1,0,0,1-.522.489,2.126,2.126,0,0,1-.873.154A2.411,2.411,0,0,1-489.341-6974.961Zm1.351-1.719a.614.614,0,0,1-.51-.212.9.9,0,0,1-.168-.573,1.01,1.01,0,0,1,.186-.65.628.628,0,0,1,.512-.226.66.66,0,0,1,.545.281,1.1,1.1,0,0,1,.214.687.649.649,0,0,1-.228.485A.8.8,0,0,1-487.989-6976.68Z" transform="translate(363 32.133)"/>
  </g>
</svg>