<svg xmlns="http://www.w3.org/2000/svg" width="24" height="24" viewBox="0 0 24 24">
  <g id="Filter_7" transform="translate(141.917 6953)">
    <path id="Path_1" data-name="Path 1" d="M0,0H24V24H0Z" transform="translate(-141.917 -6953)" fill="none"/>
    <path id="Subtraction_1" data-name="Subtraction 1" d="M-193.916-6967.133h-4v-2h4v2Zm-.938-5h-7.062v-2h5.613a6.26,6.26,0,0,0,1.448,2Zm-2-5h-8.062v-2h8.525a6.232,6.232,0,0,0-.464,2Z" transform="translate(66 32.133)"/>
    <path id="Subtraction_5" data-name="Subtraction 5" d="M-415.651-6970.468a6.273,6.273,0,0,1-6.265-6.267,6.272,6.272,0,0,1,6.265-6.266,6.273,6.273,0,0,1,6.267,6.266A6.274,6.274,0,0,1-415.651-6970.468Zm.389-7.767-1.877,4.1h1.108l1.891-4.327v-.662h-3.586v.888Z" transform="translate(291 32.133)"/>
  </g>
</svg>