<svg xmlns="http://www.w3.org/2000/svg" width="24" height="24" viewBox="0 0 24 24">
  <g id="Filter_3" transform="translate(141.917 6953)">
    <path id="Path_1" data-name="Path 1" d="M0,0H24V24H0Z" transform="translate(-141.917 -6953)" fill="none"/>
    <path id="Subtraction_1" data-name="Subtraction 1" d="M-193.916-6967.133h-4v-2h4v2Zm-.938-5h-7.062v-2h5.613a6.26,6.26,0,0,0,1.448,2Zm-2-5h-8.062v-2h8.525a6.232,6.232,0,0,0-.464,2Z" transform="translate(66 32.133)"/>
    <path id="Subtraction_9" data-name="Subtraction 9" d="M-271.65-6970.468a6.274,6.274,0,0,1-6.267-6.267A6.273,6.273,0,0,1-271.65-6983a6.272,6.272,0,0,1,6.265,6.266A6.273,6.273,0,0,1-271.65-6970.468Zm-2-4.767h0v.9a3.633,3.633,0,0,0,1.442.27,2.419,2.419,0,0,0,1.493-.4,1.342,1.342,0,0,0,.524-1.124,1.027,1.027,0,0,0-.312-.787,1.6,1.6,0,0,0-.915-.368v-.019a1.482,1.482,0,0,0,.8-.452,1.181,1.181,0,0,0,.284-.8,1.015,1.015,0,0,0-.45-.876,2.116,2.116,0,0,0-1.225-.314,2.727,2.727,0,0,0-1.63.493l.489.727a2.559,2.559,0,0,1,.566-.284,1.614,1.614,0,0,1,.5-.081c.479,0,.712.185.712.566a.552.552,0,0,1-.268.522,1.794,1.794,0,0,1-.85.153h-.386v.81h.379a2.128,2.128,0,0,1,.917.147.518.518,0,0,1,.287.5.657.657,0,0,1-.251.571,1.338,1.338,0,0,1-.771.177,2.727,2.727,0,0,1-.69-.091,3.273,3.273,0,0,1-.64-.24Z" transform="translate(147 32.133)"/>
  </g>
</svg>