<svg xmlns="http://www.w3.org/2000/svg" width="24" height="24" viewBox="0 0 24 24">
  <g id="Filter_9plus" transform="translate(141.917 6953)">
    <path id="Path_1" data-name="Path 1" d="M0,0H24V24H0Z" transform="translate(-141.917 -6953)" fill="none"/>
    <path id="Subtraction_1" data-name="Subtraction 1" d="M-193.916-6967.133h-4v-2h4v2Zm-.938-5h-7.062v-2h5.613a6.26,6.26,0,0,0,1.448,2Zm-2-5h-8.062v-2h8.525a6.232,6.232,0,0,0-.464,2Z" transform="translate(66 32.133)"/>
    <path id="Subtraction_2" data-name="Subtraction 2" d="M-523.651-6970.468a6.273,6.273,0,0,1-6.265-6.267,6.272,6.272,0,0,1,6.265-6.266,6.273,6.273,0,0,1,6.267,6.266A6.274,6.274,0,0,1-523.651-6970.468Zm-2.82-4.493h0v.848a3.579,3.579,0,0,0,.673.047,2.353,2.353,0,0,0,1.884-.728,3.347,3.347,0,0,0,.622-2.2,2.882,2.882,0,0,0-.223-1.178,1.683,1.683,0,0,0-.638-.753,1.8,1.8,0,0,0-.969-.259,1.663,1.663,0,0,0-1.243.466,1.746,1.746,0,0,0-.456,1.271,1.692,1.692,0,0,0,.375,1.164,1.321,1.321,0,0,0,1.029.419,1.439,1.439,0,0,0,.65-.132,1.155,1.155,0,0,0,.457-.45h.042a2.186,2.186,0,0,1-.209.918,1.112,1.112,0,0,1-.524.489,2.092,2.092,0,0,1-.871.154A2.394,2.394,0,0,1-526.471-6974.961Zm5.045-1.264v1.316h.748v-1.316h1.321v-.749h-1.321v-1.333h-.748v1.333h-1.323v.749Zm-3.7-.456a.607.607,0,0,1-.508-.212.9.9,0,0,1-.168-.573,1,1,0,0,1,.184-.65.625.625,0,0,1,.513-.226.66.66,0,0,1,.545.281,1.111,1.111,0,0,1,.214.687.65.65,0,0,1-.23.485A.794.794,0,0,1-525.121-6976.68Z" transform="translate(399.05 32.133)"/>
  </g>
</svg>