<svg xmlns="http://www.w3.org/2000/svg" width="24" height="24" viewBox="0 0 24 24">
  <g id="Filter_6" transform="translate(141.917 6953)">
    <path id="Path_1" data-name="Path 1" d="M0,0H24V24H0Z" transform="translate(-141.917 -6953)" fill="none"/>
    <path id="Subtraction_1" data-name="Subtraction 1" d="M-193.916-6967.133h-4v-2h4v2Zm-.938-5h-7.062v-2h5.613a6.26,6.26,0,0,0,1.448,2Zm-2-5h-8.062v-2h8.525a6.232,6.232,0,0,0-.464,2Z" transform="translate(66 32.133)"/>
    <path id="Subtraction_6" data-name="Subtraction 6" d="M-379.65-6970.468a6.274,6.274,0,0,1-6.267-6.267A6.273,6.273,0,0,1-379.65-6983a6.272,6.272,0,0,1,6.265,6.266A6.273,6.273,0,0,1-379.65-6970.468Zm.487-8.72a2.366,2.366,0,0,0-1.879.724,3.32,3.32,0,0,0-.627,2.208,2.866,2.866,0,0,0,.224,1.187,1.665,1.665,0,0,0,.636.749,1.782,1.782,0,0,0,.966.256,1.662,1.662,0,0,0,1.25-.466,1.752,1.752,0,0,0,.452-1.265,1.677,1.677,0,0,0-.38-1.164,1.342,1.342,0,0,0-1.048-.421,1.167,1.167,0,0,0-1.085.582h-.044a2.231,2.231,0,0,1,.2-.913,1.114,1.114,0,0,1,.515-.485,2.071,2.071,0,0,1,.887-.163,2.759,2.759,0,0,1,.6.068v-.845A3.51,3.51,0,0,0-379.163-6979.188Zm-.7,4.279a.657.657,0,0,1-.542-.28,1.111,1.111,0,0,1-.214-.687.64.64,0,0,1,.228-.485.77.77,0,0,1,.549-.208.617.617,0,0,1,.51.21.878.878,0,0,1,.17.575,1.025,1.025,0,0,1-.182.648A.63.63,0,0,1-379.864-6974.909Z" transform="translate(255 32.133)"/>
  </g>
</svg>