<svg xmlns="http://www.w3.org/2000/svg" width="24" height="24" viewBox="0 0 24 24">
  <g id="Filter_5" transform="translate(141.917 6953)">
    <path id="Path_1" data-name="Path 1" d="M0,0H24V24H0Z" transform="translate(-141.917 -6953)" fill="none"/>
    <path id="Subtraction_1" data-name="Subtraction 1" d="M-193.916-6967.133h-4v-2h4v2Zm-.938-5h-7.062v-2h5.613a6.26,6.26,0,0,0,1.448,2Zm-2-5h-8.062v-2h8.525a6.232,6.232,0,0,0-.464,2Z" transform="translate(66 32.133)"/>
    <path id="Subtraction_7" data-name="Subtraction 7" d="M-343.65-6970.468a6.274,6.274,0,0,1-6.267-6.267A6.273,6.273,0,0,1-343.65-6983a6.272,6.272,0,0,1,6.265,6.266A6.273,6.273,0,0,1-343.65-6970.468Zm-1.923-4.779h0v.911a2.9,2.9,0,0,0,1.346.27,2.159,2.159,0,0,0,1.477-.451,1.629,1.629,0,0,0,.515-1.288,1.464,1.464,0,0,0-.428-1.114,1.617,1.617,0,0,0-1.155-.407,2.388,2.388,0,0,0-.515.047l-.119.024.091-.981h1.784v-.9h-2.709l-.189,2.546.421.226a2.95,2.95,0,0,1,.356-.077,2.415,2.415,0,0,1,.4-.037c.665,0,1,.254,1,.755,0,.527-.325.794-.967.794a2.735,2.735,0,0,1-.68-.091,2.81,2.81,0,0,1-.629-.233Z" transform="translate(219 32.133)"/>
  </g>
</svg>