<svg xmlns="http://www.w3.org/2000/svg" width="24" height="24" viewBox="0 0 24 24">
  <g id="Filter_2" transform="translate(141.917 6953)">
    <path id="Path_1" data-name="Path 1" d="M0,0H24V24H0Z" transform="translate(-141.917 -6953)" fill="none"/>
    <path id="Subtraction_1" data-name="Subtraction 1" d="M-193.916-6967.133h-4v-2h4v2Zm-.938-5h-7.062v-2h5.613a6.26,6.26,0,0,0,1.448,2Zm-2-5h-8.062v-2h8.525a6.232,6.232,0,0,0-.464,2Z" transform="translate(66 32.133)"/>
    <path id="Subtraction_10" data-name="Subtraction 10" d="M-235.65-6970.468a6.274,6.274,0,0,1-6.267-6.267A6.273,6.273,0,0,1-235.65-6983a6.272,6.272,0,0,1,6.265,6.266A6.273,6.273,0,0,1-235.65-6970.468Zm-.289-7.853a.646.646,0,0,1,.443.147.565.565,0,0,1,.165.449,1.038,1.038,0,0,1-.075.389,1.738,1.738,0,0,1-.245.408c-.114.147-.359.414-.727.79l-1.255,1.269v.734h3.493v-.889h-2.177v-.047l.641-.6a8.84,8.84,0,0,0,.9-.906,2.481,2.481,0,0,0,.377-.62,1.74,1.74,0,0,0,.121-.648,1.28,1.28,0,0,0-.2-.7,1.321,1.321,0,0,0-.557-.48,1.933,1.933,0,0,0-.827-.17,2.692,2.692,0,0,0-.643.07,2.306,2.306,0,0,0-.529.2,3.709,3.709,0,0,0-.612.445l.575.68a2.926,2.926,0,0,1,.57-.38A1.3,1.3,0,0,1-235.939-6978.321Z" transform="translate(111 32.133)"/>
  </g>
</svg>