<svg xmlns="http://www.w3.org/2000/svg" width="22" height="24" viewBox="0 0 20 20">
    <path fill="#63666A" fill-rule="evenodd" d="M17.41 2.594c.763.765.763 2.099 0 2.864l-.72.72-2.866-2.865.721-.719c.765-.764 2.1-.765 2.864 0zM2.375 17.626l.595-2.374 1.78 1.781-2.375.593zM12.411 4.728l2.863 2.863-8.568 8.568-2.863-2.863 8.568-8.568zm6.41-3.549A3.996 3.996 0 0 0 15.974 0a3.997 3.997 0 0 0-2.846 1.179L1.72 12.587s0 .003-.002.004a1.26 1.26 0 0 0-.26.461L.03 18.757a.998.998 0 0 0 .263.949l.001.001.002.001a1 1 0 0 0 .95.264l5.703-1.427c.163-.041.38-.18.461-.261l.004-.002 11.41-11.409A3.994 3.994 0 0 0 20 4.027a4 4 0 0 0-1.178-2.847l-.002-.001z"/>
</svg>
