<svg xmlns="http://www.w3.org/2000/svg" xmlns:xlink="http://www.w3.org/1999/xlink" width="24" height="24" viewBox="0 0 24 24">
    <defs>
        <path id="prefix__a" d="M17.41 2.594c.763.765.763 2.099 0 2.864l-.72.72-2.866-2.865.721-.719c.765-.764 2.1-.765 2.864 0zM2.375 17.626l.595-2.374 1.78 1.781-2.375.593zM12.411 4.728l2.863 2.863-8.568 8.568-2.863-2.863 8.568-8.568zm6.41-3.549C18.061.418 17.051 0 15.974 0c-1.074 0-2.086.418-2.846 1.179L1.72 12.587s0 .003-.002.004c-.08.082-.22.298-.26.461L.03 18.757c-.086.34.015.701.263.949l.001.001.002.001c.248.248.608.349.95.264l5.703-1.427c.163-.041.38-.18.461-.261l.004-.002 11.41-11.409c.76-.76 1.178-1.771 1.177-2.846 0-1.076-.418-2.086-1.178-2.847l-.002-.001z"/>
    </defs>
    <g fill="none" fill-rule="evenodd" opacity=".5" transform="translate(2 2)">
        <mask id="prefix__b" fill="#fff">
            <use xlink:href="#prefix__a"/>
        </mask>
        <use fill="#005EB8" xlink:href="#prefix__a"/>
        <path fill="#63666A" d="M-2 -2H22V22H-2z" mask="url(#prefix__b)"/>
    </g>
</svg>
