<svg xmlns="http://www.w3.org/2000/svg" xmlns:xlink="http://www.w3.org/1999/xlink" width="24" height="24" viewBox="0 0 24 24">
    <defs>
        <path id="prefix__a" d="M17 10c3.86 0 7 3.14 7 7s-3.14 7-7 7-7-3.14-7-7 3.14-7 7-7zm0 2c-2.757 0-5 2.243-5 5s2.243 5 5 5 5-2.243 5-5-2.243-5-5-5zM7 0v3h7v2h1V0h2v3h1c1.103 0 2 .898 2 2v3H2v10h6v2H2c-1.103 0-2-.897-2-2V5c0-1.102.897-2 2-2h2v2h1V0h2zm11 13v3h2v2h-4v-5h2z"/>
    </defs>
    <g fill="none" fill-rule="evenodd">
        <mask id="prefix__b" fill="#fff">
            <use xlink:href="#prefix__a"/>
        </mask>
        <use fill="#63666A" xlink:href="#prefix__a"/>
        <path fill="#63666A" d="M0 0H24V24H0z" mask="url(#prefix__b)"/>
    </g>
</svg>
