<svg xmlns="http://www.w3.org/2000/svg" width="24" height="24" viewBox="0 0 24 24">
    <g fill="none" fill-rule="evenodd">
        <g fill="#63666A">
            <g>
                <g>
                    <path d="M11 2c2.675 0 5.104 1.05 6.899 2.761L16.51 6.2C15.075 4.836 13.135 4 11 4c-4.418 0-8 3.582-8 8s3.582 8 8 8c2.279 0 4.335-.953 5.792-2.482l1.451 1.377C16.421 20.808 13.85 22 11 22 5.477 22 1 17.523 1 12S5.477 2 11 2zm1 5v1h2v2h-3.5c-.275 0-.5.224-.5.5s.225.5.5.5h1c1.379 0 2.5 1.122 2.5 2.5 0 1.207-.86 2.217-2 2.449V17h-2v-1H8v-2h3.5c.276 0 .5-.224.5-.5s-.224-.5-.5-.5h-1C9.122 13 8 11.878 8 10.5c0-1.207.86-2.217 2-2.449V7h2zm7.75 2v2.25H22v1.5h-2.25V15h-1.5v-2.251L16 12.75v-1.5l2.25-.001V9h1.5z" transform="translate(-81 -603) translate(81 336.5) translate(0 266.5)"/>
                </g>
            </g>
        </g>
    </g>
</svg>
