<svg xmlns="http://www.w3.org/2000/svg" width="20" height="21" viewBox="0 0 20 21">
    <g fill="none" fill-rule="evenodd">
        <g fill="#005EB8">
            <g>
                <g>
                    <g>
                        <g>
                            <path d="M15.46 1.755c.26-.128.566-.115.812.037.245.151.395.42.395.709v15c0 .289-.15.556-.395.709-.246.15-.553.165-.811.036l-2.902-1.451-2.096 1.399c-.28.186-.645.186-.925 0l-2.098-1.4-2.9 1.452c-.118.059-.246.088-.373.088-.153 0-.304-.043-.439-.124-.245-.153-.395-.42-.395-.71v-15c0-.288.15-.557.395-.708.246-.152.554-.165.811-.037l2.901 1.45 2.097-1.398c.28-.186.645-.186.925 0l2.098 1.399zM10 3.502L7.963 4.86c-.25.165-.569.185-.835.051L5 3.85v12.303l2.128-1.064c.117-.058.244-.087.372-.087.162 0 .323.047.463.14L10 16.499l2.037-1.358c.249-.167.567-.186.835-.053L15 16.152V3.85l-2.127 1.063c-.268.134-.587.114-.835-.051L10 3.5zm3.333 8.165v1.666H6.667v-1.666h6.666zm0-2.5v1.666H6.667V9.167h6.666zm0-2.5v1.666H6.667V6.667h6.666z" transform="translate(-418 -432) translate(133 311.846) translate(56 120.522) translate(229)"/>
                        </g>
                    </g>
                </g>
            </g>
        </g>
    </g>
</svg>
