<svg xmlns="http://www.w3.org/2000/svg" width="24" height="24" viewBox="0 0 24 24">
    <g fill="none" fill-rule="evenodd">
        <path d="M0 0h24v24H0z"/>
        <g fill="#63666A">
            <path d="M18 19.383l-2.553-1.277a.999.999 0 0 0-1.002.063L12 19.799l-2.445-1.63a1.004 1.004 0 0 0-1.002-.063L6 19.383V4.619l2.553 1.276c.32.16.703.136 1.002-.062L12 4.202l2.445 1.63c.298.199.681.223 1.002.063L18 4.619v14.764zM19.526 2.15a1 1 0 0 0-.973-.045l-3.481 1.74-2.517-1.677a1 1 0 0 0-1.11 0L8.928 3.847 5.447 2.106A1 1 0 0 0 4 3v18a1.003 1.003 0 0 0 1 1 .992.992 0 0 0 .447-.106l3.481-1.741 2.517 1.679c.336.223.774.223 1.11 0l2.516-1.68 3.482 1.742A1 1 0 0 0 20 21V3a.998.998 0 0 0-.474-.85z"/>
            <path d="M16 8H8v2h8zM8 13h8v-2H8zM8 16h8v-2H8z"/>
        </g>
    </g>
</svg>
