<?xml version="1.0" encoding="UTF-8"?>
<svg width="24px" height="24px" viewBox="0 0 24 24" version="1.1" xmlns="http://www.w3.org/2000/svg" xmlns:xlink="http://www.w3.org/1999/xlink">
    <!-- Generator: Sketch 60 (88103) - https://sketch.com -->
    <title>Icons/Account/gray</title>
    <desc>Created with Sketch.</desc>
    <g id="Icons/Account/gray" stroke="none" stroke-width="1" fill="none" fill-rule="evenodd">
        <rect id="Rectangle-1-Copy-1210" x="0" y="0" width="24" height="24"></rect>
        <g id="Fill-751-+-Fill-752" transform="translate(2.000000, 2.000000)" fill="#63666A">
            <path d="M18,14.0005 L13.414,14.0005 L11.414,12.0005 L13.414,10.0005 L18,10.0005 L18,14.0005 Z M15.997,18.0005 L2,18.0005 L2,6.0005 L16,6.0005 L16,8.0005 L13,8.0005 C12.735,8.0005 12.481,8.1055 12.293,8.2935 L9.293,11.2935 C8.902,11.6845 8.902,12.3165 9.293,12.7085 L12.293,15.7085 C12.481,15.8945 12.735,16.0005 13,16.0005 L15.998,16.0005 L15.997,18.0005 Z M12.517,2.2705 L13.382,4.0005 L8.193,4.0005 L12.517,2.2705 Z M19,8.0005 L18,8.0005 L18,6.0005 C18,4.8975 17.103,4.0005 16,4.0005 L15.618,4.0005 L13.894,0.5535 C13.662,0.0885 13.112,-0.1205 12.628,0.0715 L2.807,4.0005 L2,4.0005 C0.897,4.0005 0,4.8975 0,6.0005 L0,18.0005 C0,19.1035 0.897,20.0005 2,20.0005 L16,20.0005 C17.103,20.0005 18,19.1035 18,18.0005 L18,16.0005 L19,16.0005 C19.552,16.0005 20,15.5525 20,15.0005 L20,9.0005 C20,8.4485 19.552,8.0005 19,8.0005 L19,8.0005 Z" id="Fill-751"></path>
            <path d="M13,12.0005 C13,12.5535 13.448,13.0005 14,13.0005 C14.552,13.0005 15,12.5535 15,12.0005 C15,11.4495 14.552,11.0005 14,11.0005 C13.448,11.0005 13,11.4495 13,12.0005" id="Fill-752"></path>
        </g>
    </g>
</svg>