<svg xmlns="http://www.w3.org/2000/svg" xmlns:xlink="http://www.w3.org/1999/xlink" width="21" height="23" viewBox="0 0 21 23">
    <defs>
        <path id="a" d="M20.469 8.198c1.098 4.76-1.138 9.493-5.135 11.567l2.216.758-.573 1.682-4.664-1.622a.884.884 0 0 1-.567-1.02l.03-.107 1.62-4.758 1.65.573-.991 2.804c3.42-1.554 5.376-5.48 4.465-9.427-1.034-4.477-5.372-7.312-9.67-6.32-4.298.993-6.954 5.443-5.92 9.92.087.378.2.753.335 1.113l-1.865.724c-.17-.449-.31-.917-.419-1.387C-.31 7.1 3.01 1.538 8.381.298c5.373-1.24 10.796 2.304 12.088 7.9zM6.75 15.625v2.344H9v1.562H6.75v2.344h-1.5v-2.344H3V17.97h2.25v-2.344h1.5zm5.284-9.375v6.25H7v-2.083l3.034-.001V6.25h2z"/>
    </defs>
    <g fill="none" fill-rule="evenodd">
        <path d="M-1-1h24v25H-1z"/>
        <g transform="translate(0 .042)">
            <mask id="b" fill="#fff">
                <use xlink:href="#a"/>
            </mask>
            <use fill="#000" xlink:href="#a"/>
            <path fill="#63666A" d="M-1-1.042h24v25H-1z" mask="url(#b)"/>
        </g>
    </g>
</svg>
