<svg xmlns="http://www.w3.org/2000/svg" xmlns:xlink="http://www.w3.org/1999/xlink" width="24" height="25" viewBox="0 0 24 25">
    <defs>
        <path id="a" d="M20.123.925c.864 0 1.29.546 1.43.727.528.678.593 1.636.161 2.385l-3.675 6.38 3.676 6.382a2.16 2.16 0 0 1-.163 2.385c-.139.178-.564.724-1.428.724-1.008 0-2.453-.67-7.83-3.17-2.757-1.28-6.52-3.028-11.692-5.364A1.044 1.044 0 0 1 0 10.417c0-.414.236-.79.602-.956 5.19-2.344 8.962-4.097 11.721-5.38 5.354-2.487 6.793-3.156 7.8-3.156zm-3.816 10.534H5.791c3.006 1.375 5.408 2.49 7.318 3.377 3.878 1.801 6.007 2.79 6.807 2.961l-3.609-6.338zm3.658-8.433c-.758.137-2.885 1.126-6.827 2.958-1.914.89-4.326 2.01-7.347 3.392h10.515z"/>
    </defs>
    <g fill="none" fill-rule="evenodd">
        <path d="M0 0h24v25H0z"/>
        <g transform="translate(1 2.083)">
            <mask id="b" fill="#fff">
                <use xlink:href="#a"/>
            </mask>
            <use fill="#000" fill-opacity=".9" xlink:href="#a"/>
            <path fill="#63666A" d="M-1-2.083h24v25H-1z" mask="url(#b)"/>
        </g>
    </g>
</svg>
