<?xml version="1.0" encoding="UTF-8"?>
<svg width="24px" height="24px" viewBox="0 0 24 24" version="1.1" xmlns="http://www.w3.org/2000/svg" xmlns:xlink="http://www.w3.org/1999/xlink">
    <!-- Generator: Sketch 62 (91390) - https://sketch.com -->
    <title>Icons/settings</title>
    <desc>Created with Sketch.</desc>
    <defs>
        <path d="M16.9999,12.0001 C18.6539,12.0001 19.9999,13.3461 19.9999,15.0001 C19.9999,16.6541 18.6539,18.0001 16.9999,18.0001 C15.6979,18.0001 14.5989,17.1621 14.1859,16.0001 L-0.0001,16.0001 L-0.0001,14.0001 L14.1859,14.0001 C14.5989,12.8381 15.6979,12.0001 16.9999,12.0001 M16.9999,14.0001 C16.4489,14.0001 15.9999,14.4481 15.9999,15.0001 C15.9999,15.5521 16.4489,16.0001 16.9999,16.0001 C17.5509,16.0001 17.9999,15.5521 17.9999,15.0001 C17.9999,14.4481 17.5509,14.0001 16.9999,14.0001 M6.9999,6.0001 C8.3019,6.0001 9.4009,6.8381 9.8149,8.0001 L19.9999,8.0001 L19.9999,10.0001 L9.8149,10.0001 C9.4009,11.1621 8.3019,12.0001 6.9999,12.0001 C5.6979,12.0001 4.5989,11.1621 4.1849,10.0001 L-0.0001,10.0001 L-0.0001,8.0001 L4.1849,8.0001 C4.5989,6.8381 5.6979,6.0001 6.9999,6.0001 M6.9999,8.0001 C6.4489,8.0001 5.9999,8.4481 5.9999,9.0001 C5.9999,9.5521 6.4489,10.0001 6.9999,10.0001 C7.5509,10.0001 7.9999,9.5521 7.9999,9.0001 C7.9999,8.4481 7.5509,8.0001 6.9999,8.0001 M16.9999,0.0001 C18.6539,0.0001 19.9999,1.3461 19.9999,3.0001 C19.9999,4.6541 18.6539,6.0001 16.9999,6.0001 C15.6979,6.0001 14.5989,5.1621 14.1859,4.0001 L-0.0001,4.0001 L-0.0001,2.0001 L14.1859,2.0001 C14.5989,0.8381 15.6979,0.0001 16.9999,0.0001 M16.9999,2.0001 C16.4489,2.0001 15.9999,2.4481 15.9999,3.0001 C15.9999,3.5521 16.4489,4.0001 16.9999,4.0001 C17.5509,4.0001 17.9999,3.5521 17.9999,3.0001 C17.9999,2.4481 17.5509,2.0001 16.9999,2.0001" id="path-1"></path>
    </defs>
    <g id="Icons/settings" stroke="none" stroke-width="1" fill="none" fill-rule="evenodd">
        <g transform="translate(2.000000, 3.000000)">
            <mask id="mask-2-assets" fill="white">
                <use xlink:href="#path-1"></use>
            </mask>
            <use fill="#63666a" xlink:href="#path-1"></use>
            <rect fill="#63666a" mask="url(#mask-2-assets)" x="-2" y="-3" width="24" height="24"></rect>
        </g>
    </g>
</svg>